<mxfile host="app.diagrams.net" modified="2024-04-25T00:39:23.674Z" agent="Mozilla/5.0 (Windows NT 10.0; Win64; x64) AppleWebKit/537.36 (KHTML, like Gecko) Chrome/124.0.0.0 Safari/537.36" etag="ClMvdSEkEjh3d39U4gbj" version="24.3.0" type="device" pages="8">
  <diagram name="banco" id="qZtO9xA5L_iWuaUYxpO0">
    <mxGraphModel dx="2314" dy="780" grid="0" gridSize="10" guides="1" tooltips="1" connect="1" arrows="1" fold="1" page="1" pageScale="1" pageWidth="1169" pageHeight="827" math="0" shadow="0">
      <root>
        <mxCell id="47wesqLec2WLJLlyW0Y4-0" />
        <mxCell id="47wesqLec2WLJLlyW0Y4-1" parent="47wesqLec2WLJLlyW0Y4-0" />
        <mxCell id="ma8oHs-2e2VVcCfuHMEL-1" value="" style="ellipse;fillColor=#000000;strokeColor=none;" parent="47wesqLec2WLJLlyW0Y4-1" vertex="1">
          <mxGeometry x="214" y="19" width="30" height="30" as="geometry" />
        </mxCell>
        <mxCell id="ma8oHs-2e2VVcCfuHMEL-6" value="&lt;b&gt;u: abrir o sistema de doações&lt;/b&gt;" style="endArrow=classic;html=1;rounded=0;exitX=0.5;exitY=1;exitDx=0;exitDy=0;entryX=0.5;entryY=0;entryDx=0;entryDy=0;align=left;" parent="47wesqLec2WLJLlyW0Y4-1" source="ma8oHs-2e2VVcCfuHMEL-1" edge="1">
          <mxGeometry x="-0.0476" y="5" width="50" height="50" relative="1" as="geometry">
            <mxPoint x="394" y="89" as="sourcePoint" />
            <mxPoint x="229" y="91" as="targetPoint" />
            <mxPoint as="offset" />
          </mxGeometry>
        </mxCell>
        <mxCell id="h0bEJ118TIdp47uyP4up-10" style="edgeStyle=orthogonalEdgeStyle;rounded=0;orthogonalLoop=1;jettySize=auto;html=1;exitX=0.5;exitY=1;exitDx=0;exitDy=0;entryX=0.5;entryY=0;entryDx=0;entryDy=0;" parent="47wesqLec2WLJLlyW0Y4-1" source="ma8oHs-2e2VVcCfuHMEL-12" target="h0bEJ118TIdp47uyP4up-8" edge="1">
          <mxGeometry relative="1" as="geometry" />
        </mxCell>
        <mxCell id="h0bEJ118TIdp47uyP4up-11" value="&lt;b&gt;u: efetuar login&lt;/b&gt;" style="edgeLabel;html=1;align=center;verticalAlign=middle;resizable=0;points=[];" parent="h0bEJ118TIdp47uyP4up-10" vertex="1" connectable="0">
          <mxGeometry x="-0.0502" y="-1" relative="1" as="geometry">
            <mxPoint x="44" as="offset" />
          </mxGeometry>
        </mxCell>
        <mxCell id="ma8oHs-2e2VVcCfuHMEL-12" value="Efetuar login" style="swimlane;fontStyle=0;childLayout=stackLayout;horizontal=1;startSize=34;fillColor=none;horizontalStack=0;resizeParent=1;resizeParentMax=0;resizeLast=0;collapsible=1;marginBottom=0;rounded=1;overflow=block;whiteSpace=wrap;autosize=1;resizeHeight=0;resizeWidth=0;resizable=1;expand=1;html=1;" parent="47wesqLec2WLJLlyW0Y4-1" vertex="1">
          <mxGeometry x="250" y="221" width="169" height="106" as="geometry">
            <mxRectangle x="361" y="280" width="120" height="30" as="alternateBounds" />
          </mxGeometry>
        </mxCell>
        <mxCell id="ma8oHs-2e2VVcCfuHMEL-13" value="[identificar-se:&lt;div&gt;&lt;/div&gt;&lt;div&gt;d+u: usuário, senha]&lt;/div&gt;" style="text;strokeColor=none;fillColor=none;align=left;verticalAlign=top;spacingLeft=4;spacingRight=4;overflow=visible;rotatable=0;points=[[0,0.5],[1,0.5]];portConstraint=eastwest;labelPadding=0;autosize=1;movable=0;html=1;fontStyle=0" parent="ma8oHs-2e2VVcCfuHMEL-12" vertex="1">
          <mxGeometry y="28" width="131" height="41" as="geometry" />
        </mxCell>
        <mxCell id="h0bEJ118TIdp47uyP4up-4" style="edgeStyle=orthogonalEdgeStyle;rounded=0;orthogonalLoop=1;jettySize=auto;html=1;exitX=0.5;exitY=1;exitDx=0;exitDy=0;" parent="47wesqLec2WLJLlyW0Y4-1" source="h0bEJ118TIdp47uyP4up-0" target="ma8oHs-2e2VVcCfuHMEL-12" edge="1">
          <mxGeometry relative="1" as="geometry" />
        </mxCell>
        <mxCell id="h0bEJ118TIdp47uyP4up-7" value="&lt;b&gt;u: sistema de doações&lt;/b&gt;" style="edgeLabel;html=1;align=center;verticalAlign=middle;resizable=0;points=[];" parent="h0bEJ118TIdp47uyP4up-4" vertex="1" connectable="0">
          <mxGeometry x="-0.6655" y="2" relative="1" as="geometry">
            <mxPoint x="64" y="-5" as="offset" />
          </mxGeometry>
        </mxCell>
        <mxCell id="h0bEJ118TIdp47uyP4up-0" value="Home" style="rounded=1;whiteSpace=wrap;html=1;" parent="47wesqLec2WLJLlyW0Y4-1" vertex="1">
          <mxGeometry x="169" y="92" width="120" height="60" as="geometry" />
        </mxCell>
        <mxCell id="h0bEJ118TIdp47uyP4up-35" style="edgeStyle=orthogonalEdgeStyle;rounded=0;orthogonalLoop=1;jettySize=auto;html=1;exitX=1;exitY=1;exitDx=0;exitDy=0;" parent="47wesqLec2WLJLlyW0Y4-1" source="h0bEJ118TIdp47uyP4up-8" edge="1">
          <mxGeometry relative="1" as="geometry">
            <mxPoint x="543" y="309" as="targetPoint" />
          </mxGeometry>
        </mxCell>
        <mxCell id="h0bEJ118TIdp47uyP4up-8" value="" style="whiteSpace=wrap;html=1;aspect=fixed;fillColor=#000000;" parent="47wesqLec2WLJLlyW0Y4-1" vertex="1">
          <mxGeometry x="277" y="396" width="35.5" height="35.5" as="geometry" />
        </mxCell>
        <mxCell id="h0bEJ118TIdp47uyP4up-25" value="" style="endArrow=none;dashed=1;html=1;rounded=0;" parent="47wesqLec2WLJLlyW0Y4-1" source="h0bEJ118TIdp47uyP4up-22" edge="1">
          <mxGeometry width="50" height="50" relative="1" as="geometry">
            <mxPoint x="275" y="428.5" as="sourcePoint" />
            <mxPoint x="164" y="155" as="targetPoint" />
            <Array as="points" />
          </mxGeometry>
        </mxCell>
        <mxCell id="h0bEJ118TIdp47uyP4up-30" value="" style="endArrow=none;dashed=1;html=1;rounded=0;" parent="47wesqLec2WLJLlyW0Y4-1" target="h0bEJ118TIdp47uyP4up-22" edge="1">
          <mxGeometry width="50" height="50" relative="1" as="geometry">
            <mxPoint x="269" y="412" as="sourcePoint" />
            <mxPoint x="164" y="155" as="targetPoint" />
            <Array as="points">
              <mxPoint x="37" y="296" />
            </Array>
          </mxGeometry>
        </mxCell>
        <mxCell id="h0bEJ118TIdp47uyP4up-22" value="" style="triangle;whiteSpace=wrap;html=1;fillColor=#000000;rotation=-45;" parent="47wesqLec2WLJLlyW0Y4-1" vertex="1">
          <mxGeometry x="161.59" y="148.40999999999997" width="8" height="11" as="geometry" />
        </mxCell>
        <mxCell id="h0bEJ118TIdp47uyP4up-31" value="&lt;b&gt;if/d: login ou senha incorreto&lt;/b&gt;" style="edgeLabel;html=1;align=center;verticalAlign=middle;resizable=0;points=[];" parent="47wesqLec2WLJLlyW0Y4-1" vertex="1" connectable="0">
          <mxGeometry x="37" y="402" as="geometry">
            <mxPoint x="111" y="-8" as="offset" />
          </mxGeometry>
        </mxCell>
        <mxCell id="h0bEJ118TIdp47uyP4up-36" value="&lt;div&gt;d: login efetuado&lt;/div&gt;&lt;div&gt;precond: usuário estar logado&lt;/div&gt;&lt;div&gt;&lt;b&gt;why: o cadastro é necessário para a realização de doações&amp;nbsp;&amp;nbsp;&lt;/b&gt;&lt;/div&gt;" style="edgeLabel;html=1;align=center;verticalAlign=middle;resizable=0;points=[];" parent="47wesqLec2WLJLlyW0Y4-1" vertex="1" connectable="0">
          <mxGeometry x="344" y="472" as="geometry" />
        </mxCell>
        <mxCell id="h0bEJ118TIdp47uyP4up-42" style="edgeStyle=orthogonalEdgeStyle;rounded=0;orthogonalLoop=1;jettySize=auto;html=1;exitX=1;exitY=0.5;exitDx=0;exitDy=0;entryX=0;entryY=0.528;entryDx=0;entryDy=0;entryPerimeter=0;" parent="47wesqLec2WLJLlyW0Y4-1" target="h0bEJ118TIdp47uyP4up-44" edge="1">
          <mxGeometry relative="1" as="geometry">
            <mxPoint x="631" y="155" as="sourcePoint" />
            <mxPoint x="761" y="252.5" as="targetPoint" />
          </mxGeometry>
        </mxCell>
        <mxCell id="h0bEJ118TIdp47uyP4up-37" value="realizar doação" style="rounded=1;whiteSpace=wrap;html=1;" parent="47wesqLec2WLJLlyW0Y4-1" vertex="1">
          <mxGeometry x="521" y="122" width="111" height="40" as="geometry" />
        </mxCell>
        <mxCell id="h0bEJ118TIdp47uyP4up-38" value="&lt;b&gt;Cadastrar múltiplos itens&lt;/b&gt;" style="swimlane;fontStyle=0;childLayout=stackLayout;horizontal=1;startSize=34;fillColor=none;horizontalStack=0;resizeParent=1;resizeParentMax=0;resizeLast=0;collapsible=1;marginBottom=0;rounded=1;overflow=block;whiteSpace=wrap;autosize=1;resizeHeight=0;resizeWidth=0;resizable=1;expand=1;html=1;" parent="47wesqLec2WLJLlyW0Y4-1" vertex="1">
          <mxGeometry x="747" y="19" width="384" height="190" as="geometry">
            <mxRectangle x="775" y="407" width="120" height="30" as="alternateBounds" />
          </mxGeometry>
        </mxCell>
        <mxCell id="h0bEJ118TIdp47uyP4up-44" value="[selecionar fotos:&lt;div&gt;d+u: listagem (fotos da galeria do usuário)&lt;/div&gt;&lt;div&gt;u: selecionar imagens]&lt;/div&gt;&lt;div&gt;[selecionar tipo do item:&lt;/div&gt;&lt;div&gt;d+u: tipo (camisa, camiseta, blusa, calça, bermuda, outro)&lt;span style=&quot;background-color: initial;&quot;&gt;]&lt;/span&gt;&lt;/div&gt;&lt;div&gt;&lt;span style=&quot;background-color: initial;&quot;&gt;[selecionar condição do item:&lt;/span&gt;&lt;/div&gt;&lt;div&gt;&lt;span style=&quot;background-color: initial;&quot;&gt;d+u: estado (novo, usado)]&lt;/span&gt;&lt;/div&gt;&lt;div&gt;&lt;span style=&quot;background-color: initial;&quot;&gt;[escrever tamanho do item:&lt;/span&gt;&lt;/div&gt;&lt;div&gt;&lt;span style=&quot;background-color: initial;&quot;&gt;d+u: tamanho do item]&lt;/span&gt;&lt;/div&gt;&lt;div&gt;&lt;div&gt;&lt;br&gt;&lt;/div&gt;&lt;/div&gt;" style="text;html=1;align=center;verticalAlign=middle;resizable=0;points=[];autosize=1;strokeColor=none;fillColor=none;" parent="h0bEJ118TIdp47uyP4up-38" vertex="1">
          <mxGeometry y="34" width="384" height="156" as="geometry" />
        </mxCell>
        <mxCell id="h0bEJ118TIdp47uyP4up-46" value="" style="ellipse;shape=doubleEllipse;whiteSpace=wrap;html=1;aspect=fixed;fillColor=#FFFFFF;" parent="47wesqLec2WLJLlyW0Y4-1" vertex="1">
          <mxGeometry x="65" y="691" width="49" height="49" as="geometry" />
        </mxCell>
        <mxCell id="h0bEJ118TIdp47uyP4up-47" value="" style="ellipse;whiteSpace=wrap;html=1;aspect=fixed;fillColor=#000000;" parent="47wesqLec2WLJLlyW0Y4-1" vertex="1">
          <mxGeometry x="69.25" y="696" width="39.75" height="39.75" as="geometry" />
        </mxCell>
        <mxCell id="h0bEJ118TIdp47uyP4up-50" style="edgeStyle=orthogonalEdgeStyle;rounded=0;orthogonalLoop=1;jettySize=auto;html=1;exitX=0.5;exitY=1;exitDx=0;exitDy=0;entryX=0.5;entryY=0;entryDx=0;entryDy=0;" parent="47wesqLec2WLJLlyW0Y4-1" source="h0bEJ118TIdp47uyP4up-48" target="h0bEJ118TIdp47uyP4up-47" edge="1">
          <mxGeometry relative="1" as="geometry" />
        </mxCell>
        <mxCell id="h0bEJ118TIdp47uyP4up-51" value="u: sair" style="edgeLabel;html=1;align=center;verticalAlign=middle;resizable=0;points=[];" parent="h0bEJ118TIdp47uyP4up-50" vertex="1" connectable="0">
          <mxGeometry x="-0.0068" relative="1" as="geometry">
            <mxPoint x="20" y="-5" as="offset" />
          </mxGeometry>
        </mxCell>
        <mxCell id="h0bEJ118TIdp47uyP4up-48" value="" style="rounded=1;whiteSpace=wrap;html=1;" parent="47wesqLec2WLJLlyW0Y4-1" vertex="1">
          <mxGeometry x="50" y="613" width="79" height="25" as="geometry" />
        </mxCell>
        <mxCell id="h0bEJ118TIdp47uyP4up-62" style="edgeStyle=orthogonalEdgeStyle;rounded=0;orthogonalLoop=1;jettySize=auto;html=1;exitX=0;exitY=1;exitDx=0;exitDy=0;entryX=1;entryY=0.5;entryDx=0;entryDy=0;" parent="47wesqLec2WLJLlyW0Y4-1" source="h0bEJ118TIdp47uyP4up-52" target="h0bEJ118TIdp47uyP4up-61" edge="1">
          <mxGeometry relative="1" as="geometry" />
        </mxCell>
        <mxCell id="h0bEJ118TIdp47uyP4up-52" value="" style="whiteSpace=wrap;html=1;aspect=fixed;fillColor=#000000;" parent="47wesqLec2WLJLlyW0Y4-1" vertex="1">
          <mxGeometry x="695" y="447" width="35.5" height="35.5" as="geometry" />
        </mxCell>
        <mxCell id="h0bEJ118TIdp47uyP4up-55" value="" style="endArrow=none;dashed=1;html=1;rounded=0;" parent="47wesqLec2WLJLlyW0Y4-1" edge="1">
          <mxGeometry width="50" height="50" relative="1" as="geometry">
            <mxPoint x="630.7429212778907" y="193.89977552738287" as="sourcePoint" />
            <mxPoint x="631" y="193" as="targetPoint" />
            <Array as="points" />
          </mxGeometry>
        </mxCell>
        <mxCell id="h0bEJ118TIdp47uyP4up-56" value="" style="endArrow=classic;html=1;rounded=0;exitX=0.5;exitY=1;exitDx=0;exitDy=0;entryX=1;entryY=0.5;entryDx=0;entryDy=0;" parent="47wesqLec2WLJLlyW0Y4-1" source="h0bEJ118TIdp47uyP4up-38" target="h0bEJ118TIdp47uyP4up-52" edge="1">
          <mxGeometry width="50" height="50" relative="1" as="geometry">
            <mxPoint x="794" y="456" as="sourcePoint" />
            <mxPoint x="755" y="470" as="targetPoint" />
            <Array as="points">
              <mxPoint x="945" y="465" />
            </Array>
          </mxGeometry>
        </mxCell>
        <mxCell id="h0bEJ118TIdp47uyP4up-58" value="&lt;div&gt;precond: todas as fotos descritas e nomeadas&lt;/div&gt;&lt;div&gt;&lt;b&gt;u: confirmar&lt;/b&gt;&lt;/div&gt;" style="edgeLabel;html=1;align=center;verticalAlign=middle;resizable=0;points=[];" parent="47wesqLec2WLJLlyW0Y4-1" vertex="1" connectable="0">
          <mxGeometry x="1013" y="361" as="geometry" />
        </mxCell>
        <mxCell id="h0bEJ118TIdp47uyP4up-59" value="&lt;b&gt;if/d: erro&lt;/b&gt;" style="edgeLabel;html=1;align=center;verticalAlign=middle;resizable=0;points=[];" parent="47wesqLec2WLJLlyW0Y4-1" vertex="1" connectable="0">
          <mxGeometry x="600" y="321" as="geometry">
            <mxPoint x="111" y="-8" as="offset" />
          </mxGeometry>
        </mxCell>
        <mxCell id="h0bEJ118TIdp47uyP4up-68" style="edgeStyle=orthogonalEdgeStyle;rounded=0;orthogonalLoop=1;jettySize=auto;html=1;exitX=0.5;exitY=1;exitDx=0;exitDy=0;entryX=0.5;entryY=0;entryDx=0;entryDy=0;" parent="47wesqLec2WLJLlyW0Y4-1" source="h0bEJ118TIdp47uyP4up-61" target="h0bEJ118TIdp47uyP4up-66" edge="1">
          <mxGeometry relative="1" as="geometry" />
        </mxCell>
        <mxCell id="h0bEJ118TIdp47uyP4up-61" value="escolher instituições" style="rounded=1;whiteSpace=wrap;html=1;" parent="47wesqLec2WLJLlyW0Y4-1" vertex="1">
          <mxGeometry x="536" y="522" width="111" height="40" as="geometry" />
        </mxCell>
        <mxCell id="h0bEJ118TIdp47uyP4up-76" value="" style="edgeStyle=orthogonalEdgeStyle;rounded=0;orthogonalLoop=1;jettySize=auto;html=1;entryX=1;entryY=0.5;entryDx=0;entryDy=0;" parent="47wesqLec2WLJLlyW0Y4-1" source="h0bEJ118TIdp47uyP4up-66" target="h0bEJ118TIdp47uyP4up-73" edge="1">
          <mxGeometry relative="1" as="geometry">
            <mxPoint x="350" y="706" as="targetPoint" />
          </mxGeometry>
        </mxCell>
        <mxCell id="h0bEJ118TIdp47uyP4up-66" value="&lt;b&gt;Selecionar instituições&lt;/b&gt;" style="swimlane;fontStyle=0;childLayout=stackLayout;horizontal=1;startSize=34;fillColor=none;horizontalStack=0;resizeParent=1;resizeParentMax=0;resizeLast=0;collapsible=1;marginBottom=0;rounded=1;overflow=block;whiteSpace=wrap;autosize=1;resizeHeight=0;resizeWidth=0;resizable=1;expand=1;html=1;" parent="47wesqLec2WLJLlyW0Y4-1" vertex="1">
          <mxGeometry x="449" y="610" width="339" height="190" as="geometry">
            <mxRectangle x="775" y="407" width="120" height="30" as="alternateBounds" />
          </mxGeometry>
        </mxCell>
        <mxCell id="h0bEJ118TIdp47uyP4up-67" value="[selecionar instituições&lt;div&gt;d: listagem (instituições disponíveis para a doação)&lt;/div&gt;&lt;div&gt;u: selecionar instituição&lt;/div&gt;&lt;div&gt;d: informações da instituição]&lt;/div&gt;&lt;div&gt;[escolher itens cadastrados:&lt;/div&gt;&lt;div&gt;d: lista dos itens cadastrados&lt;/div&gt;&lt;div&gt;u: selecionar itens cadastrados&lt;/div&gt;&lt;div&gt;d: confirmar, voltar&lt;/div&gt;&lt;div&gt;&lt;br&gt;&lt;/div&gt;&lt;div&gt;&lt;div&gt;&lt;br&gt;&lt;/div&gt;&lt;/div&gt;" style="text;html=1;align=center;verticalAlign=middle;resizable=0;points=[];autosize=1;strokeColor=none;fillColor=none;" parent="h0bEJ118TIdp47uyP4up-66" vertex="1">
          <mxGeometry y="34" width="339" height="156" as="geometry" />
        </mxCell>
        <mxCell id="h0bEJ118TIdp47uyP4up-69" value="d: _" style="edgeLabel;html=1;align=center;verticalAlign=middle;resizable=0;points=[];" parent="47wesqLec2WLJLlyW0Y4-1" vertex="1" connectable="0">
          <mxGeometry x="712.75" y="531" as="geometry">
            <mxPoint x="-3" y="-9" as="offset" />
          </mxGeometry>
        </mxCell>
        <mxCell id="h0bEJ118TIdp47uyP4up-70" value="u: _" style="edgeLabel;html=1;align=center;verticalAlign=middle;resizable=0;points=[];" parent="47wesqLec2WLJLlyW0Y4-1" vertex="1" connectable="0">
          <mxGeometry x="560" y="312" as="geometry">
            <mxPoint x="125" y="-177" as="offset" />
          </mxGeometry>
        </mxCell>
        <mxCell id="h0bEJ118TIdp47uyP4up-71" value="u: _" style="edgeLabel;html=1;align=center;verticalAlign=middle;resizable=0;points=[];" parent="47wesqLec2WLJLlyW0Y4-1" vertex="1" connectable="0">
          <mxGeometry x="722.75" y="541" as="geometry">
            <mxPoint x="-111" y="49" as="offset" />
          </mxGeometry>
        </mxCell>
        <mxCell id="h0bEJ118TIdp47uyP4up-73" value="" style="whiteSpace=wrap;html=1;aspect=fixed;fillColor=#000000;" parent="47wesqLec2WLJLlyW0Y4-1" vertex="1">
          <mxGeometry x="239" y="594" width="35.5" height="35.5" as="geometry" />
        </mxCell>
        <mxCell id="h0bEJ118TIdp47uyP4up-77" value="u: confirmar" style="edgeLabel;html=1;align=center;verticalAlign=middle;resizable=0;points=[];" parent="47wesqLec2WLJLlyW0Y4-1" vertex="1" connectable="0">
          <mxGeometry x="458" y="553" as="geometry">
            <mxPoint x="-111" y="49" as="offset" />
          </mxGeometry>
        </mxCell>
        <mxCell id="h0bEJ118TIdp47uyP4up-101" value="&lt;b&gt;if/d: itens não selecionados&lt;/b&gt;" style="edgeLabel;html=1;align=center;verticalAlign=middle;resizable=0;points=[];" parent="47wesqLec2WLJLlyW0Y4-1" vertex="1" connectable="0">
          <mxGeometry x="139" y="701" as="geometry">
            <mxPoint x="111" y="-8" as="offset" />
          </mxGeometry>
        </mxCell>
        <mxCell id="h0bEJ118TIdp47uyP4up-104" value="" style="endArrow=none;dashed=1;html=1;rounded=0;" parent="47wesqLec2WLJLlyW0Y4-1" edge="1">
          <mxGeometry width="50" height="50" relative="1" as="geometry">
            <mxPoint x="694" y="468" as="sourcePoint" />
            <mxPoint x="618" y="193" as="targetPoint" />
            <Array as="points">
              <mxPoint x="692" y="309" />
            </Array>
          </mxGeometry>
        </mxCell>
        <mxCell id="h0bEJ118TIdp47uyP4up-112" value="" style="endArrow=classic;html=1;rounded=0;entryX=0.892;entryY=1.025;entryDx=0;entryDy=0;entryPerimeter=0;" parent="47wesqLec2WLJLlyW0Y4-1" target="h0bEJ118TIdp47uyP4up-37" edge="1">
          <mxGeometry width="50" height="50" relative="1" as="geometry">
            <mxPoint x="619" y="191" as="sourcePoint" />
            <mxPoint x="1083" y="232" as="targetPoint" />
          </mxGeometry>
        </mxCell>
        <mxCell id="h0bEJ118TIdp47uyP4up-113" value="" style="endArrow=none;dashed=1;html=1;rounded=0;exitX=0.5;exitY=1;exitDx=0;exitDy=0;" parent="47wesqLec2WLJLlyW0Y4-1" source="h0bEJ118TIdp47uyP4up-73" edge="1">
          <mxGeometry width="50" height="50" relative="1" as="geometry">
            <mxPoint x="1033" y="482" as="sourcePoint" />
            <mxPoint x="419" y="783" as="targetPoint" />
            <Array as="points">
              <mxPoint x="246" y="765" />
            </Array>
          </mxGeometry>
        </mxCell>
        <mxCell id="h0bEJ118TIdp47uyP4up-114" value="" style="triangle;whiteSpace=wrap;html=1;fillColor=#000000;rotation=-45;" parent="47wesqLec2WLJLlyW0Y4-1" vertex="1">
          <mxGeometry x="418.41" y="772.59" width="12" height="11" as="geometry" />
        </mxCell>
        <mxCell id="2IZTHE2VJkD1hBgflDlA-5" style="edgeStyle=orthogonalEdgeStyle;rounded=0;orthogonalLoop=1;jettySize=auto;html=1;exitX=0.5;exitY=0;exitDx=0;exitDy=0;entryX=0.5;entryY=1;entryDx=0;entryDy=0;" edge="1" parent="47wesqLec2WLJLlyW0Y4-1" source="2IZTHE2VJkD1hBgflDlA-3" target="h0bEJ118TIdp47uyP4up-37">
          <mxGeometry relative="1" as="geometry" />
        </mxCell>
        <mxCell id="2IZTHE2VJkD1hBgflDlA-3" value="Escolher opções" style="swimlane;fontStyle=0;childLayout=stackLayout;horizontal=1;startSize=34;fillColor=none;horizontalStack=0;resizeParent=1;resizeParentMax=0;resizeLast=0;collapsible=1;marginBottom=0;rounded=1;overflow=block;whiteSpace=wrap;autosize=1;resizeHeight=0;resizeWidth=0;resizable=1;expand=1;html=1;" vertex="1" parent="47wesqLec2WLJLlyW0Y4-1">
          <mxGeometry x="472" y="205" width="131" height="104" as="geometry">
            <mxRectangle x="361" y="280" width="120" height="30" as="alternateBounds" />
          </mxGeometry>
        </mxCell>
        <mxCell id="2IZTHE2VJkD1hBgflDlA-4" value="[realizar doação&lt;div&gt;&lt;/div&gt;&lt;div&gt;d: confirmar, voltar]&lt;/div&gt;" style="text;strokeColor=none;fillColor=none;align=left;verticalAlign=top;spacingLeft=4;spacingRight=4;overflow=visible;rotatable=0;points=[[0,0.5],[1,0.5]];portConstraint=eastwest;labelPadding=0;autosize=1;movable=0;html=1;fontStyle=0" vertex="1" parent="2IZTHE2VJkD1hBgflDlA-3">
          <mxGeometry y="28" width="124" height="41" as="geometry" />
        </mxCell>
        <mxCell id="2IZTHE2VJkD1hBgflDlA-6" value="&lt;span style=&quot;color: rgb(0, 0, 0); font-family: Helvetica; font-size: 11px; font-style: normal; font-variant-ligatures: normal; font-variant-caps: normal; font-weight: 400; letter-spacing: normal; orphans: 2; text-align: center; text-indent: 0px; text-transform: none; widows: 2; word-spacing: 0px; -webkit-text-stroke-width: 0px; white-space: nowrap; background-color: rgb(255, 255, 255); text-decoration-thickness: initial; text-decoration-style: initial; text-decoration-color: initial; display: inline !important; float: none;&quot;&gt;u: confirmar&lt;/span&gt;" style="text;whiteSpace=wrap;html=1;" vertex="1" parent="47wesqLec2WLJLlyW0Y4-1">
          <mxGeometry x="472" y="165" width="28" height="22" as="geometry" />
        </mxCell>
      </root>
    </mxGraphModel>
  </diagram>
  <diagram name="banco transferencia (com signos)" id="sN5ZkXg1fNJFeFlWOlLG">
    <mxGraphModel grid="0" page="1" gridSize="10" guides="1" tooltips="1" connect="1" arrows="1" fold="1" pageScale="1" pageWidth="1169" pageHeight="827" math="0" shadow="0">
      <root>
        <mxCell id="xildkvrmIcrlHmpOkI-4-0" />
        <mxCell id="xildkvrmIcrlHmpOkI-4-1" parent="xildkvrmIcrlHmpOkI-4-0" />
        <mxCell id="xildkvrmIcrlHmpOkI-4-2" value="" style="rounded=1;whiteSpace=wrap;html=1;fillColor=#E0E0E0;" vertex="1" parent="xildkvrmIcrlHmpOkI-4-1">
          <mxGeometry x="245" y="110" width="90" height="34" as="geometry" />
        </mxCell>
        <mxCell id="xildkvrmIcrlHmpOkI-4-3" value="Informar dados para transferência" style="swimlane;fontStyle=0;childLayout=stackLayout;horizontal=1;startSize=28;fillColor=none;horizontalStack=0;resizeParent=1;resizeParentMax=0;resizeLast=0;collapsible=1;marginBottom=0;rounded=1;overflow=block;whiteSpace=wrap;autosize=1;resizeHeight=0;resizeWidth=0;resizable=1;expand=1;html=1;" vertex="1" parent="xildkvrmIcrlHmpOkI-4-1">
          <mxGeometry x="175" y="210" width="230" height="170" as="geometry" />
        </mxCell>
        <mxCell id="xildkvrmIcrlHmpOkI-4-4" value="&lt;div&gt;conferir conta {*}&lt;br&gt;&lt;/div&gt;&lt;div&gt;&lt;br&gt;&lt;/div&gt;informar conta de destino - XOR {&lt;br&gt;&amp;nbsp; &amp;nbsp; d+u: agência e conta;&lt;br&gt;&amp;nbsp; &amp;nbsp; d+u: conta favorita;&lt;br&gt;&amp;nbsp; &amp;nbsp; d+u: conta utilizada previamente }&lt;br&gt;&lt;div&gt;&lt;br&gt;&lt;/div&gt;&lt;div&gt;informar valor a transferir {&lt;/div&gt;&amp;nbsp;&amp;nbsp;&amp;nbsp; d+u: valor }" style="text;strokeColor=none;fillColor=none;align=left;verticalAlign=top;spacingLeft=4;spacingRight=4;overflow=visible;rotatable=0;points=[[0,0.5],[1,0.5]];portConstraint=eastwest;labelPadding=0;autosize=1;movable=0;html=1;" vertex="1" parent="xildkvrmIcrlHmpOkI-4-3">
          <mxGeometry y="28" width="216" height="142" as="geometry" />
        </mxCell>
        <mxCell id="xildkvrmIcrlHmpOkI-4-5" value="&lt;div&gt;if: conta identificada&lt;/div&gt;&lt;div&gt;u: efetuar transferência&lt;/div&gt;" style="endArrow=classic;html=1;rounded=0;exitX=0.5;exitY=1;exitDx=0;exitDy=0;entryX=0.5;entryY=0;entryDx=0;entryDy=0;edgeStyle=orthogonalEdgeStyle;align=left;" edge="1" parent="xildkvrmIcrlHmpOkI-4-1" source="xildkvrmIcrlHmpOkI-4-2" target="xildkvrmIcrlHmpOkI-4-3">
          <mxGeometry x="-0.3416" y="10" width="50" height="50" relative="1" as="geometry">
            <mxPoint x="-30" y="140" as="sourcePoint" />
            <mxPoint x="-30" y="280" as="targetPoint" />
            <mxPoint as="offset" />
          </mxGeometry>
        </mxCell>
        <mxCell id="xildkvrmIcrlHmpOkI-4-6" value="Confirmar a transferência" style="swimlane;fontStyle=0;childLayout=stackLayout;horizontal=1;startSize=38;fillColor=none;horizontalStack=0;resizeParent=1;resizeParentMax=0;resizeLast=0;collapsible=1;marginBottom=0;rounded=1;overflow=block;whiteSpace=wrap;autosize=1;resizeHeight=0;resizeWidth=0;resizable=1;expand=1;html=1;" vertex="1" parent="xildkvrmIcrlHmpOkI-4-1">
          <mxGeometry x="175" y="480" width="230" height="196" as="geometry" />
        </mxCell>
        <mxCell id="xildkvrmIcrlHmpOkI-4-7" value="&lt;div&gt;conferir conta {*}&lt;/div&gt;&lt;div&gt;&lt;br&gt;&lt;/div&gt;&lt;div&gt;verificar dados da transferência {&lt;/div&gt;&lt;div&gt;&amp;nbsp;&amp;nbsp; d: titular, agência, conta, &lt;br&gt;&amp;nbsp;&amp;nbsp;&amp;nbsp;&amp;nbsp;&amp;nbsp;&amp;nbsp; valor a transferir &lt;br&gt;}&lt;/div&gt;&lt;div&gt;&lt;br&gt;&lt;/div&gt;&lt;div&gt;confirmar transferência com senha {&lt;/div&gt;&lt;div&gt;&amp;nbsp;&amp;nbsp; d+u: senha&lt;/div&gt;&lt;div&gt;}&lt;/div&gt;" style="text;strokeColor=none;fillColor=none;align=left;verticalAlign=top;spacingLeft=4;spacingRight=4;overflow=visible;rotatable=0;points=[[0,0.5],[1,0.5]];portConstraint=eastwest;labelPadding=0;autosize=1;movable=0;html=1;" vertex="1" parent="xildkvrmIcrlHmpOkI-4-6">
          <mxGeometry y="40" width="214" height="156" as="geometry" />
        </mxCell>
        <mxCell id="xildkvrmIcrlHmpOkI-4-8" value="u: prosseguir" style="endArrow=classic;html=1;rounded=0;edgeStyle=orthogonalEdgeStyle;spacing=2;align=left;entryX=0.5;entryY=0.032;entryDx=0;entryDy=0;exitX=0.5;exitY=1;exitDx=0;exitDy=0;entryPerimeter=0;" edge="1" parent="xildkvrmIcrlHmpOkI-4-1" source="xildkvrmIcrlHmpOkI-4-3" target="xildkvrmIcrlHmpOkI-4-11">
          <mxGeometry x="-0.1429" y="10" width="50" height="50" relative="1" as="geometry">
            <mxPoint x="285" y="420" as="sourcePoint" />
            <mxPoint x="185" y="334" as="targetPoint" />
            <mxPoint as="offset" />
          </mxGeometry>
        </mxCell>
        <mxCell id="xildkvrmIcrlHmpOkI-4-9" value="&lt;div&gt;if: senha informada&lt;/div&gt;&lt;div&gt;u: confirmar transferência&lt;/div&gt;" style="endArrow=classic;html=1;rounded=0;exitX=0.5;exitY=1;exitDx=0;exitDy=0;align=left;" edge="1" parent="xildkvrmIcrlHmpOkI-4-1" source="xildkvrmIcrlHmpOkI-4-6" target="xildkvrmIcrlHmpOkI-4-14">
          <mxGeometry x="-0.1822" y="4" width="50" height="50" relative="1" as="geometry">
            <mxPoint x="280" y="662" as="sourcePoint" />
            <mxPoint x="286.32000000000016" y="661.3199999999999" as="targetPoint" />
            <mxPoint as="offset" />
          </mxGeometry>
        </mxCell>
        <mxCell id="xildkvrmIcrlHmpOkI-4-10" value="u: alterar dados" style="endArrow=classic;html=1;rounded=0;edgeStyle=orthogonalEdgeStyle;align=left;exitX=1;exitY=0.5;exitDx=0;exitDy=0;dashed=1;entryX=1;entryY=0.25;entryDx=0;entryDy=0;" edge="1" parent="xildkvrmIcrlHmpOkI-4-1" source="xildkvrmIcrlHmpOkI-4-6" target="xildkvrmIcrlHmpOkI-4-3">
          <mxGeometry width="50" height="50" relative="1" as="geometry">
            <mxPoint x="60" y="675" as="sourcePoint" />
            <mxPoint x="437" y="277" as="targetPoint" />
            <Array as="points">
              <mxPoint x="544" y="578" />
              <mxPoint x="544" y="252" />
            </Array>
          </mxGeometry>
        </mxCell>
        <mxCell id="xildkvrmIcrlHmpOkI-4-11" value="" style="fontStyle=0;labelPosition=right;verticalLabelPosition=middle;align=left;verticalAlign=middle;spacingLeft=2;html=1;points=[[0,0.5],[1,0.5]];fillColor=#000000;strokeColor=none;" vertex="1" parent="xildkvrmIcrlHmpOkI-4-1">
          <mxGeometry x="275" y="404" width="30" height="30" as="geometry" />
        </mxCell>
        <mxCell id="xildkvrmIcrlHmpOkI-4-12" value="if: dados corretos e&lt;br&gt;saldo suficiente" style="endArrow=classic;html=1;rounded=0;edgeStyle=orthogonalEdgeStyle;spacing=2;align=left;entryX=0.5;entryY=0;entryDx=0;entryDy=0;exitX=0.495;exitY=0.998;exitDx=0;exitDy=0;exitPerimeter=0;" edge="1" parent="xildkvrmIcrlHmpOkI-4-1" source="xildkvrmIcrlHmpOkI-4-11" target="xildkvrmIcrlHmpOkI-4-6">
          <mxGeometry x="-0.1429" y="10" width="50" height="50" relative="1" as="geometry">
            <mxPoint x="280" y="378" as="sourcePoint" />
            <mxPoint x="283.65999999999985" y="430.6600000000001" as="targetPoint" />
            <mxPoint as="offset" />
          </mxGeometry>
        </mxCell>
        <mxCell id="xildkvrmIcrlHmpOkI-4-13" value="if/d: conta de destino &lt;br&gt;inválida ou&lt;br&gt;saldo insuficiente" style="endArrow=classic;html=1;rounded=0;dashed=1;edgeStyle=orthogonalEdgeStyle;entryX=1;entryY=0.75;entryDx=0;entryDy=0;align=left;exitX=1;exitY=0.5;exitDx=0;exitDy=0;" edge="1" parent="xildkvrmIcrlHmpOkI-4-1" source="xildkvrmIcrlHmpOkI-4-11" target="xildkvrmIcrlHmpOkI-4-3">
          <mxGeometry width="50" height="50" relative="1" as="geometry">
            <mxPoint x="310" y="755" as="sourcePoint" />
            <mxPoint x="405" y="575" as="targetPoint" />
            <Array as="points">
              <mxPoint x="422" y="419" />
              <mxPoint x="422" y="338" />
            </Array>
          </mxGeometry>
        </mxCell>
        <mxCell id="xildkvrmIcrlHmpOkI-4-14" value="..." style="text;html=1;strokeColor=none;fillColor=none;align=center;verticalAlign=middle;whiteSpace=wrap;rounded=0;" vertex="1" parent="xildkvrmIcrlHmpOkI-4-1">
          <mxGeometry x="260" y="724" width="60" height="30" as="geometry" />
        </mxCell>
        <mxCell id="wK2yQagcVlHlxWptOyzV-0" value="u: desistir da &lt;br&gt;transferência" style="endArrow=classic;html=1;rounded=0;edgeStyle=orthogonalEdgeStyle;align=left;exitX=1.009;exitY=0.083;exitDx=0;exitDy=0;dashed=1;entryX=1;entryY=0.5;entryDx=0;entryDy=0;exitPerimeter=0;" edge="1" parent="xildkvrmIcrlHmpOkI-4-1" source="xildkvrmIcrlHmpOkI-4-3" target="xildkvrmIcrlHmpOkI-4-2">
          <mxGeometry x="-0.2676" y="21" width="50" height="50" relative="1" as="geometry">
            <mxPoint x="413" y="572" as="sourcePoint" />
            <mxPoint x="436" y="296" as="targetPoint" />
            <Array as="points">
              <mxPoint x="485" y="224" />
              <mxPoint x="485" y="127" />
            </Array>
            <mxPoint as="offset" />
          </mxGeometry>
        </mxCell>
      </root>
    </mxGraphModel>
  </diagram>
  <diagram id="TJV7Sp8QIQaJ0xqHU-3L" name="elemento - cena de alerta">
    <mxGraphModel dx="905" dy="1114" grid="0" gridSize="10" guides="1" tooltips="1" connect="1" arrows="1" fold="1" page="1" pageScale="1" pageWidth="1169" pageHeight="827" math="0" shadow="0">
      <root>
        <mxCell id="0" />
        <mxCell id="1" parent="0" />
        <mxCell id="FgklZyF4EwBk5q-3B-nP-1" value="" style="rounded=1;whiteSpace=wrap;html=1;fillColor=#E0E0E0;" parent="1" vertex="1">
          <mxGeometry x="1799" y="103" width="90" height="34" as="geometry" />
        </mxCell>
        <mxCell id="FgklZyF4EwBk5q-3B-nP-2" value="Informar dados para transferência" style="swimlane;fontStyle=0;childLayout=stackLayout;horizontal=1;startSize=28;fillColor=none;horizontalStack=0;resizeParent=1;resizeParentMax=0;resizeLast=0;collapsible=1;marginBottom=0;rounded=1;overflow=block;whiteSpace=wrap;autosize=1;resizeHeight=0;resizeWidth=0;resizable=1;expand=1;html=1;" parent="1" vertex="1">
          <mxGeometry x="1734" y="203" width="220" height="120" as="geometry" />
        </mxCell>
        <mxCell id="FgklZyF4EwBk5q-3B-nP-3" value="&lt;div&gt;conferir conta {*}&lt;/div&gt;&lt;div&gt;&lt;br&gt;&lt;/div&gt;informar conta de destino {...}&lt;br&gt;&lt;div&gt;&lt;br&gt;&lt;/div&gt;&lt;div&gt;informar valor a transferir {...}&lt;/div&gt;" style="text;strokeColor=none;fillColor=none;align=left;verticalAlign=top;spacingLeft=4;spacingRight=4;overflow=visible;rotatable=0;points=[[0,0.5],[1,0.5]];portConstraint=eastwest;labelPadding=0;autosize=1;movable=0;html=1;" parent="FgklZyF4EwBk5q-3B-nP-2" vertex="1">
          <mxGeometry y="28" width="179" height="84" as="geometry" />
        </mxCell>
        <mxCell id="FgklZyF4EwBk5q-3B-nP-4" value="&lt;div&gt;if: conta identificada&lt;/div&gt;&lt;div&gt;u: efetuar transferência&lt;/div&gt;" style="endArrow=classic;html=1;rounded=0;exitX=0.5;exitY=1;exitDx=0;exitDy=0;entryX=0.5;entryY=0;entryDx=0;entryDy=0;edgeStyle=orthogonalEdgeStyle;align=left;" parent="1" source="FgklZyF4EwBk5q-3B-nP-1" target="FgklZyF4EwBk5q-3B-nP-2" edge="1">
          <mxGeometry x="-0.3416" y="10" width="50" height="50" relative="1" as="geometry">
            <mxPoint x="1529" y="133" as="sourcePoint" />
            <mxPoint x="1529" y="273" as="targetPoint" />
            <mxPoint as="offset" />
          </mxGeometry>
        </mxCell>
        <mxCell id="FgklZyF4EwBk5q-3B-nP-5" value="Confirmar a transferência &lt;br&gt;(saldo suficiente)" style="swimlane;fontStyle=0;childLayout=stackLayout;horizontal=1;startSize=49;fillColor=none;horizontalStack=0;resizeParent=1;resizeParentMax=0;resizeLast=0;collapsible=1;marginBottom=0;rounded=1;overflow=block;whiteSpace=wrap;autosize=1;resizeHeight=0;resizeWidth=0;resizable=1;expand=1;html=1;" parent="1" vertex="1">
          <mxGeometry x="1729" y="473" width="228" height="133" as="geometry" />
        </mxCell>
        <mxCell id="FgklZyF4EwBk5q-3B-nP-6" value="&lt;div&gt;conferir conta {*}&lt;/div&gt;&lt;div&gt;&lt;br&gt;&lt;/div&gt;&lt;div&gt;verificar dados da transferência {...}&lt;/div&gt;&lt;div&gt;&lt;br&gt;&lt;/div&gt;&lt;div&gt;confirmar transferência com senha {...}&lt;/div&gt;" style="text;strokeColor=none;fillColor=none;align=left;verticalAlign=top;spacingLeft=4;spacingRight=4;overflow=visible;rotatable=0;points=[[0,0.5],[1,0.5]];portConstraint=eastwest;labelPadding=0;autosize=1;movable=0;html=1;" parent="FgklZyF4EwBk5q-3B-nP-5" vertex="1">
          <mxGeometry y="48" width="228" height="85" as="geometry" />
        </mxCell>
        <mxCell id="FgklZyF4EwBk5q-3B-nP-7" value="u: prosseguir" style="endArrow=classic;html=1;rounded=0;edgeStyle=orthogonalEdgeStyle;spacing=2;align=left;entryX=0.5;entryY=0.032;entryDx=0;entryDy=0;exitX=0.5;exitY=1;exitDx=0;exitDy=0;entryPerimeter=0;" parent="1" source="FgklZyF4EwBk5q-3B-nP-2" target="FgklZyF4EwBk5q-3B-nP-10" edge="1">
          <mxGeometry x="-0.1429" y="10" width="50" height="50" relative="1" as="geometry">
            <mxPoint x="1844" y="413" as="sourcePoint" />
            <mxPoint x="1744" y="327" as="targetPoint" />
            <mxPoint as="offset" />
          </mxGeometry>
        </mxCell>
        <mxCell id="FgklZyF4EwBk5q-3B-nP-8" value="&lt;div&gt;if: senha informada&lt;/div&gt;&lt;div&gt;u: confirmar transferência&lt;/div&gt;" style="endArrow=classic;html=1;rounded=0;entryX=1;entryY=0.5;entryDx=0;entryDy=0;exitX=0.5;exitY=1;exitDx=0;exitDy=0;align=left;edgeStyle=orthogonalEdgeStyle;" parent="1" source="FgklZyF4EwBk5q-3B-nP-5" target="FgklZyF4EwBk5q-3B-nP-22" edge="1">
          <mxGeometry x="-0.1907" y="4" width="50" height="50" relative="1" as="geometry">
            <mxPoint x="1839" y="655" as="sourcePoint" />
            <mxPoint x="1845.3200000000002" y="654.3199999999999" as="targetPoint" />
            <mxPoint as="offset" />
          </mxGeometry>
        </mxCell>
        <mxCell id="FgklZyF4EwBk5q-3B-nP-9" value="u: alterar dados" style="endArrow=classic;html=1;rounded=0;edgeStyle=orthogonalEdgeStyle;align=left;exitX=1;exitY=0.5;exitDx=0;exitDy=0;dashed=1;" parent="1" source="FgklZyF4EwBk5q-3B-nP-6" edge="1">
          <mxGeometry x="-0.8" y="15" width="50" height="50" relative="1" as="geometry">
            <mxPoint x="1619" y="668" as="sourcePoint" />
            <mxPoint x="1954" y="243" as="targetPoint" />
            <Array as="points">
              <mxPoint x="2084" y="558" />
              <mxPoint x="2084" y="243" />
            </Array>
            <mxPoint as="offset" />
          </mxGeometry>
        </mxCell>
        <mxCell id="FgklZyF4EwBk5q-3B-nP-10" value="" style="fontStyle=0;labelPosition=right;verticalLabelPosition=middle;align=left;verticalAlign=middle;spacingLeft=2;html=1;points=[[0,0.5],[1,0.5]];fillColor=#000000;strokeColor=none;" parent="1" vertex="1">
          <mxGeometry x="1829" y="397" width="30" height="30" as="geometry" />
        </mxCell>
        <mxCell id="FgklZyF4EwBk5q-3B-nP-11" value="if: dados corretos e&lt;br&gt;saldo suficiente" style="endArrow=classic;html=1;rounded=0;edgeStyle=orthogonalEdgeStyle;spacing=2;align=left;entryX=0.5;entryY=0;entryDx=0;entryDy=0;exitX=0.495;exitY=0.998;exitDx=0;exitDy=0;exitPerimeter=0;" parent="1" source="FgklZyF4EwBk5q-3B-nP-10" target="FgklZyF4EwBk5q-3B-nP-5" edge="1">
          <mxGeometry x="-0.1429" y="10" width="50" height="50" relative="1" as="geometry">
            <mxPoint x="1839" y="371" as="sourcePoint" />
            <mxPoint x="1842.6599999999999" y="423.6600000000001" as="targetPoint" />
            <mxPoint as="offset" />
          </mxGeometry>
        </mxCell>
        <mxCell id="FgklZyF4EwBk5q-3B-nP-12" value="if/d: conta de destino &lt;br&gt;inválida ou&lt;br&gt;saldo &lt;b&gt;e limite de crédito &lt;/b&gt;&lt;br&gt;insuficientes" style="endArrow=classic;html=1;rounded=0;dashed=1;edgeStyle=orthogonalEdgeStyle;align=left;exitX=1;exitY=0.5;exitDx=0;exitDy=0;" parent="1" source="FgklZyF4EwBk5q-3B-nP-10" edge="1">
          <mxGeometry x="0.1848" y="44" width="50" height="50" relative="1" as="geometry">
            <mxPoint x="1869" y="748" as="sourcePoint" />
            <mxPoint x="1954" y="273" as="targetPoint" />
            <Array as="points">
              <mxPoint x="1994" y="412" />
              <mxPoint x="1994" y="273" />
            </Array>
            <mxPoint as="offset" />
          </mxGeometry>
        </mxCell>
        <mxCell id="FgklZyF4EwBk5q-3B-nP-13" value="..." style="text;html=1;strokeColor=none;fillColor=none;align=center;verticalAlign=middle;whiteSpace=wrap;rounded=0;" parent="1" vertex="1">
          <mxGeometry x="1671" y="758" width="60" height="29" as="geometry" />
        </mxCell>
        <mxCell id="FgklZyF4EwBk5q-3B-nP-14" value="u: desistir da&lt;br&gt;transferência" style="endArrow=classic;html=1;rounded=0;dashed=1;edgeStyle=orthogonalEdgeStyle;align=left;exitX=1.006;exitY=0.112;exitDx=0;exitDy=0;exitPerimeter=0;" parent="1" source="FgklZyF4EwBk5q-3B-nP-2" target="FgklZyF4EwBk5q-3B-nP-1" edge="1">
          <mxGeometry x="-0.1741" y="-11" width="50" height="50" relative="1" as="geometry">
            <mxPoint x="1957" y="220" as="sourcePoint" />
            <mxPoint x="1889" y="120" as="targetPoint" />
            <Array as="points">
              <mxPoint x="1955" y="220" />
              <mxPoint x="2019" y="220" />
              <mxPoint x="2019" y="120" />
            </Array>
            <mxPoint as="offset" />
          </mxGeometry>
        </mxCell>
        <mxCell id="FgklZyF4EwBk5q-3B-nP-15" value="Confirmar a transferência &lt;br&gt;utilizando o limite de crédito" style="swimlane;fontStyle=0;childLayout=stackLayout;horizontal=1;startSize=49;fillColor=none;horizontalStack=0;resizeParent=1;resizeParentMax=0;resizeLast=0;collapsible=1;marginBottom=0;rounded=1;overflow=block;whiteSpace=wrap;autosize=1;resizeHeight=0;resizeWidth=0;resizable=1;expand=1;html=1;dashed=1;" parent="1" vertex="1">
          <mxGeometry x="1395" y="473" width="263" height="166" as="geometry" />
        </mxCell>
        <mxCell id="FgklZyF4EwBk5q-3B-nP-16" value="&lt;div&gt;conferir conta {*}&lt;/div&gt;&lt;div&gt;&lt;br&gt;&lt;/div&gt;&lt;div&gt;&lt;b&gt;verificar utilização do limite de crédito {...}&lt;/b&gt;&lt;br&gt;&lt;/div&gt;&lt;div&gt;&lt;br&gt;&lt;/div&gt;&lt;div&gt;verificar dados da transferência {...}&lt;/div&gt;&lt;div&gt;&lt;br&gt;&lt;/div&gt;&lt;div&gt;confirmar transferência com senha {...}&lt;/div&gt;" style="text;strokeColor=none;fillColor=none;align=left;verticalAlign=top;spacingLeft=4;spacingRight=4;overflow=visible;rotatable=0;points=[[0,0.5],[1,0.5]];portConstraint=eastwest;labelPadding=0;autosize=1;movable=0;html=1;" parent="FgklZyF4EwBk5q-3B-nP-15" vertex="1">
          <mxGeometry y="50" width="263" height="113" as="geometry" />
        </mxCell>
        <mxCell id="FgklZyF4EwBk5q-3B-nP-17" value="if/d: dados corretos, saldo insuficiente e&lt;br&gt;limite de crédito suficiente" style="endArrow=classic;html=1;rounded=0;edgeStyle=orthogonalEdgeStyle;spacing=2;align=left;exitX=0;exitY=0.5;exitDx=0;exitDy=0;entryX=0.5;entryY=0;entryDx=0;entryDy=0;" parent="1" source="FgklZyF4EwBk5q-3B-nP-10" target="FgklZyF4EwBk5q-3B-nP-15" edge="1">
          <mxGeometry x="0.3563" width="50" height="50" relative="1" as="geometry">
            <mxPoint x="1854" y="437" as="sourcePoint" />
            <mxPoint x="1458" y="450" as="targetPoint" />
            <mxPoint as="offset" />
          </mxGeometry>
        </mxCell>
        <mxCell id="FgklZyF4EwBk5q-3B-nP-19" value="u: alterar dados" style="endArrow=classic;html=1;rounded=0;edgeStyle=orthogonalEdgeStyle;align=left;exitX=0;exitY=0.5;exitDx=0;exitDy=0;dashed=1;entryX=0.004;entryY=0.133;entryDx=0;entryDy=0;entryPerimeter=0;" parent="1" source="FgklZyF4EwBk5q-3B-nP-15" target="FgklZyF4EwBk5q-3B-nP-3" edge="1">
          <mxGeometry x="-0.3529" y="-12" width="50" height="50" relative="1" as="geometry">
            <mxPoint x="1147" y="564" as="sourcePoint" />
            <mxPoint x="1144" y="243" as="targetPoint" />
            <Array as="points">
              <mxPoint x="1374" y="556" />
              <mxPoint x="1374" y="242" />
            </Array>
            <mxPoint as="offset" />
          </mxGeometry>
        </mxCell>
        <mxCell id="FgklZyF4EwBk5q-3B-nP-20" value="&lt;div&gt;if: senha informada&lt;/div&gt;&lt;div&gt;u: confirmar transferência&lt;/div&gt;" style="endArrow=classic;html=1;rounded=0;entryX=0;entryY=0.5;entryDx=0;entryDy=0;align=left;edgeStyle=orthogonalEdgeStyle;exitX=0.5;exitY=1;exitDx=0;exitDy=0;" parent="1" source="FgklZyF4EwBk5q-3B-nP-15" target="FgklZyF4EwBk5q-3B-nP-22" edge="1">
          <mxGeometry x="-0.3392" y="4" width="50" height="50" relative="1" as="geometry">
            <mxPoint x="1520" y="665" as="sourcePoint" />
            <mxPoint x="1511.3200000000002" y="709.9999999999999" as="targetPoint" />
            <mxPoint as="offset" />
          </mxGeometry>
        </mxCell>
        <mxCell id="FgklZyF4EwBk5q-3B-nP-22" value="" style="fontStyle=0;labelPosition=right;verticalLabelPosition=middle;align=left;verticalAlign=middle;spacingLeft=2;html=1;points=[[0,0.5],[1,0.5]];fillColor=#000000;strokeColor=none;" parent="1" vertex="1">
          <mxGeometry x="1686" y="680" width="30" height="30" as="geometry" />
        </mxCell>
        <mxCell id="FgklZyF4EwBk5q-3B-nP-23" value="if: transferência efetuada" style="endArrow=classic;html=1;rounded=0;edgeStyle=orthogonalEdgeStyle;spacing=2;align=left;entryX=0.506;entryY=-0.13;entryDx=0;entryDy=0;entryPerimeter=0;" parent="1" source="FgklZyF4EwBk5q-3B-nP-22" target="FgklZyF4EwBk5q-3B-nP-13" edge="1">
          <mxGeometry x="-0.1429" y="10" width="50" height="50" relative="1" as="geometry">
            <mxPoint x="1777" y="710" as="sourcePoint" />
            <mxPoint x="1776.24" y="756" as="targetPoint" />
            <mxPoint as="offset" />
          </mxGeometry>
        </mxCell>
      </root>
    </mxGraphModel>
  </diagram>
  <diagram name="Copy of elemento - cena de alerta" id="xgRzbrKG2aDe5cyUSf4i">
    <mxGraphModel grid="0" page="1" gridSize="10" guides="1" tooltips="1" connect="1" arrows="1" fold="1" pageScale="1" pageWidth="1169" pageHeight="827" math="0" shadow="0">
      <root>
        <mxCell id="hn5Nm0eeTXandSpbk1XQ-0" />
        <mxCell id="hn5Nm0eeTXandSpbk1XQ-1" parent="hn5Nm0eeTXandSpbk1XQ-0" />
        <mxCell id="hn5Nm0eeTXandSpbk1XQ-2" value="" style="rounded=1;whiteSpace=wrap;html=1;fillColor=#E0E0E0;" parent="hn5Nm0eeTXandSpbk1XQ-1" vertex="1">
          <mxGeometry x="1777" y="18" width="90" height="34" as="geometry" />
        </mxCell>
        <mxCell id="hn5Nm0eeTXandSpbk1XQ-3" value="Informar dados para transferência" style="swimlane;fontStyle=0;childLayout=stackLayout;horizontal=1;startSize=28;fillColor=none;horizontalStack=0;resizeParent=1;resizeParentMax=0;resizeLast=0;collapsible=1;marginBottom=0;rounded=1;overflow=block;whiteSpace=wrap;autosize=1;resizeHeight=0;resizeWidth=0;resizable=1;expand=1;html=1;" parent="hn5Nm0eeTXandSpbk1XQ-1" vertex="1">
          <mxGeometry x="1712" y="118" width="220" height="120" as="geometry" />
        </mxCell>
        <mxCell id="hn5Nm0eeTXandSpbk1XQ-4" value="&lt;div&gt;conferir conta {*}&lt;/div&gt;&lt;div&gt;&lt;br&gt;&lt;/div&gt;informar conta de destino {...}&lt;br&gt;&lt;div&gt;&lt;br&gt;&lt;/div&gt;&lt;div&gt;informar valor a transferir {...}&lt;/div&gt;" style="text;strokeColor=none;fillColor=none;align=left;verticalAlign=top;spacingLeft=4;spacingRight=4;overflow=visible;rotatable=0;points=[[0,0.5],[1,0.5]];portConstraint=eastwest;labelPadding=0;autosize=1;movable=0;html=1;" parent="hn5Nm0eeTXandSpbk1XQ-3" vertex="1">
          <mxGeometry y="28" width="179" height="84" as="geometry" />
        </mxCell>
        <mxCell id="hn5Nm0eeTXandSpbk1XQ-5" value="&lt;div&gt;if: conta identificada&lt;/div&gt;&lt;div&gt;u: efetuar transferência&lt;/div&gt;" style="endArrow=classic;html=1;rounded=0;exitX=0.5;exitY=1;exitDx=0;exitDy=0;entryX=0.5;entryY=0;entryDx=0;entryDy=0;edgeStyle=orthogonalEdgeStyle;align=left;" parent="hn5Nm0eeTXandSpbk1XQ-1" source="hn5Nm0eeTXandSpbk1XQ-2" target="hn5Nm0eeTXandSpbk1XQ-3" edge="1">
          <mxGeometry x="-0.3416" y="10" width="50" height="50" relative="1" as="geometry">
            <mxPoint x="1508" y="48" as="sourcePoint" />
            <mxPoint x="1508" y="188" as="targetPoint" />
            <mxPoint as="offset" />
          </mxGeometry>
        </mxCell>
        <mxCell id="hn5Nm0eeTXandSpbk1XQ-6" value="Confirmar a transferência &lt;br&gt;(saldo suficiente)" style="swimlane;fontStyle=0;childLayout=stackLayout;horizontal=1;startSize=49;fillColor=none;horizontalStack=0;resizeParent=1;resizeParentMax=0;resizeLast=0;collapsible=1;marginBottom=0;rounded=1;overflow=block;whiteSpace=wrap;autosize=1;resizeHeight=0;resizeWidth=0;resizable=1;expand=1;html=1;" parent="hn5Nm0eeTXandSpbk1XQ-1" vertex="1">
          <mxGeometry x="1708" y="548" width="228" height="133" as="geometry" />
        </mxCell>
        <mxCell id="hn5Nm0eeTXandSpbk1XQ-7" value="&lt;div&gt;conferir conta {*}&lt;/div&gt;&lt;div&gt;&lt;br&gt;&lt;/div&gt;&lt;div&gt;verificar dados da transferência {...}&lt;/div&gt;&lt;div&gt;&lt;br&gt;&lt;/div&gt;&lt;div&gt;confirmar transferência com senha {...}&lt;/div&gt;" style="text;strokeColor=none;fillColor=none;align=left;verticalAlign=top;spacingLeft=4;spacingRight=4;overflow=visible;rotatable=0;points=[[0,0.5],[1,0.5]];portConstraint=eastwest;labelPadding=0;autosize=1;movable=0;html=1;" parent="hn5Nm0eeTXandSpbk1XQ-6" vertex="1">
          <mxGeometry y="48" width="228" height="85" as="geometry" />
        </mxCell>
        <mxCell id="hn5Nm0eeTXandSpbk1XQ-8" value="u: prosseguir" style="endArrow=classic;html=1;rounded=0;edgeStyle=orthogonalEdgeStyle;spacing=2;align=left;entryX=0.5;entryY=0.032;entryDx=0;entryDy=0;exitX=0.5;exitY=1;exitDx=0;exitDy=0;entryPerimeter=0;" parent="hn5Nm0eeTXandSpbk1XQ-1" source="hn5Nm0eeTXandSpbk1XQ-3" target="hn5Nm0eeTXandSpbk1XQ-11" edge="1">
          <mxGeometry x="-0.1429" y="10" width="50" height="50" relative="1" as="geometry">
            <mxPoint x="1823" y="328" as="sourcePoint" />
            <mxPoint x="1723" y="242" as="targetPoint" />
            <mxPoint as="offset" />
          </mxGeometry>
        </mxCell>
        <mxCell id="hn5Nm0eeTXandSpbk1XQ-9" value="&lt;div&gt;if: senha informada&lt;/div&gt;&lt;div&gt;u: confirmar transferência&lt;/div&gt;" style="endArrow=classic;html=1;rounded=0;entryX=1;entryY=0.5;entryDx=0;entryDy=0;exitX=0.5;exitY=1;exitDx=0;exitDy=0;align=left;edgeStyle=orthogonalEdgeStyle;" parent="hn5Nm0eeTXandSpbk1XQ-1" source="hn5Nm0eeTXandSpbk1XQ-6" target="hn5Nm0eeTXandSpbk1XQ-21" edge="1">
          <mxGeometry x="-0.4118" y="15" width="50" height="50" relative="1" as="geometry">
            <mxPoint x="1818" y="570" as="sourcePoint" />
            <mxPoint x="1824.3200000000002" y="569.3199999999999" as="targetPoint" />
            <mxPoint as="offset" />
          </mxGeometry>
        </mxCell>
        <mxCell id="hn5Nm0eeTXandSpbk1XQ-10" value="u: alterar dados" style="endArrow=classic;html=1;rounded=0;edgeStyle=orthogonalEdgeStyle;align=left;exitX=1;exitY=0.5;exitDx=0;exitDy=0;dashed=1;" parent="hn5Nm0eeTXandSpbk1XQ-1" source="hn5Nm0eeTXandSpbk1XQ-7" edge="1">
          <mxGeometry x="-0.9078" y="14" width="50" height="50" relative="1" as="geometry">
            <mxPoint x="1598" y="583" as="sourcePoint" />
            <mxPoint x="1933" y="158" as="targetPoint" />
            <Array as="points">
              <mxPoint x="2063" y="639" />
              <mxPoint x="2063" y="158" />
            </Array>
            <mxPoint as="offset" />
          </mxGeometry>
        </mxCell>
        <mxCell id="hn5Nm0eeTXandSpbk1XQ-11" value="" style="fontStyle=0;labelPosition=right;verticalLabelPosition=middle;align=left;verticalAlign=middle;spacingLeft=2;html=1;points=[[0,0.5],[1,0.5]];fillColor=#000000;strokeColor=none;" parent="hn5Nm0eeTXandSpbk1XQ-1" vertex="1">
          <mxGeometry x="1807" y="283" width="30" height="30" as="geometry" />
        </mxCell>
        <mxCell id="hn5Nm0eeTXandSpbk1XQ-12" value="if: dados corretos" style="endArrow=classic;html=1;rounded=0;edgeStyle=orthogonalEdgeStyle;spacing=2;align=left;exitX=0.495;exitY=0.998;exitDx=0;exitDy=0;exitPerimeter=0;" parent="hn5Nm0eeTXandSpbk1XQ-1" source="hn5Nm0eeTXandSpbk1XQ-11" target="qErdD9e5ErkNdksZ1k7C-0" edge="1">
          <mxGeometry x="-0.1429" y="10" width="50" height="50" relative="1" as="geometry">
            <mxPoint x="1818" y="286" as="sourcePoint" />
            <mxPoint x="1821.6599999999999" y="338.6600000000001" as="targetPoint" />
            <mxPoint as="offset" />
          </mxGeometry>
        </mxCell>
        <mxCell id="hn5Nm0eeTXandSpbk1XQ-13" value="if/d: conta de destino &lt;br&gt;inválida" style="endArrow=classic;html=1;rounded=0;dashed=1;edgeStyle=orthogonalEdgeStyle;align=left;exitX=1;exitY=0.5;exitDx=0;exitDy=0;" parent="hn5Nm0eeTXandSpbk1XQ-1" source="hn5Nm0eeTXandSpbk1XQ-11" edge="1">
          <mxGeometry x="0.1848" y="44" width="50" height="50" relative="1" as="geometry">
            <mxPoint x="1848" y="663" as="sourcePoint" />
            <mxPoint x="1933" y="188" as="targetPoint" />
            <Array as="points">
              <mxPoint x="1973" y="312" />
              <mxPoint x="1973" y="188" />
            </Array>
            <mxPoint as="offset" />
          </mxGeometry>
        </mxCell>
        <mxCell id="hn5Nm0eeTXandSpbk1XQ-14" value="..." style="text;html=1;strokeColor=none;fillColor=none;align=center;verticalAlign=middle;whiteSpace=wrap;rounded=0;" parent="hn5Nm0eeTXandSpbk1XQ-1" vertex="1">
          <mxGeometry x="1677" y="797" width="60" height="29" as="geometry" />
        </mxCell>
        <mxCell id="hn5Nm0eeTXandSpbk1XQ-15" value="u: desistir da&lt;br&gt;transferência" style="endArrow=classic;html=1;rounded=0;dashed=1;edgeStyle=orthogonalEdgeStyle;align=left;exitX=1.006;exitY=0.112;exitDx=0;exitDy=0;exitPerimeter=0;" parent="hn5Nm0eeTXandSpbk1XQ-1" source="hn5Nm0eeTXandSpbk1XQ-3" target="hn5Nm0eeTXandSpbk1XQ-2" edge="1">
          <mxGeometry x="-0.1741" y="-11" width="50" height="50" relative="1" as="geometry">
            <mxPoint x="1936" y="135" as="sourcePoint" />
            <mxPoint x="1868" y="35" as="targetPoint" />
            <Array as="points">
              <mxPoint x="1934" y="135" />
              <mxPoint x="1998" y="135" />
              <mxPoint x="1998" y="35" />
            </Array>
            <mxPoint as="offset" />
          </mxGeometry>
        </mxCell>
        <mxCell id="hn5Nm0eeTXandSpbk1XQ-16" value="Confirmar a transferência &lt;br&gt;utilizando o limite de crédito" style="swimlane;fontStyle=0;childLayout=stackLayout;horizontal=1;startSize=49;fillColor=none;horizontalStack=0;resizeParent=1;resizeParentMax=0;resizeLast=0;collapsible=1;marginBottom=0;rounded=1;overflow=block;whiteSpace=wrap;autosize=1;resizeHeight=0;resizeWidth=0;resizable=1;expand=1;html=1;dashed=1;" parent="hn5Nm0eeTXandSpbk1XQ-1" vertex="1">
          <mxGeometry x="1421" y="548" width="263" height="166" as="geometry" />
        </mxCell>
        <mxCell id="hn5Nm0eeTXandSpbk1XQ-17" value="&lt;div&gt;conferir conta {*}&lt;/div&gt;&lt;div&gt;&lt;br&gt;&lt;/div&gt;&lt;div&gt;&lt;b&gt;verificar utilização do limite de crédito {...}&lt;/b&gt;&lt;br&gt;&lt;/div&gt;&lt;div&gt;&lt;br&gt;&lt;/div&gt;&lt;div&gt;verificar dados da transferência {...}&lt;/div&gt;&lt;div&gt;&lt;br&gt;&lt;/div&gt;&lt;div&gt;confirmar transferência com senha {...}&lt;/div&gt;" style="text;strokeColor=none;fillColor=none;align=left;verticalAlign=top;spacingLeft=4;spacingRight=4;overflow=visible;rotatable=0;points=[[0,0.5],[1,0.5]];portConstraint=eastwest;labelPadding=0;autosize=1;movable=0;html=1;" parent="hn5Nm0eeTXandSpbk1XQ-16" vertex="1">
          <mxGeometry y="50" width="263" height="113" as="geometry" />
        </mxCell>
        <mxCell id="hn5Nm0eeTXandSpbk1XQ-18" value="&lt;div&gt;if/d: dados corretos, saldo insuficiente, &lt;br&gt;mas &lt;b&gt;limite de crédito suficiente&lt;/b&gt;&lt;/div&gt;" style="endArrow=classic;html=1;rounded=0;spacing=2;align=left;entryX=0.5;entryY=0;entryDx=0;entryDy=0;edgeStyle=orthogonalEdgeStyle;" parent="hn5Nm0eeTXandSpbk1XQ-1" source="qErdD9e5ErkNdksZ1k7C-1" target="hn5Nm0eeTXandSpbk1XQ-16" edge="1">
          <mxGeometry x="-0.1799" y="9" width="50" height="50" relative="1" as="geometry">
            <mxPoint x="1833" y="352" as="sourcePoint" />
            <mxPoint x="1437" y="365" as="targetPoint" />
            <mxPoint as="offset" />
          </mxGeometry>
        </mxCell>
        <mxCell id="hn5Nm0eeTXandSpbk1XQ-19" value="u: alterar dados" style="endArrow=classic;html=1;rounded=0;edgeStyle=orthogonalEdgeStyle;align=left;exitX=0;exitY=0.5;exitDx=0;exitDy=0;dashed=1;entryX=0.004;entryY=0.133;entryDx=0;entryDy=0;entryPerimeter=0;" parent="hn5Nm0eeTXandSpbk1XQ-1" source="hn5Nm0eeTXandSpbk1XQ-16" target="hn5Nm0eeTXandSpbk1XQ-4" edge="1">
          <mxGeometry x="-0.6384" y="19" width="50" height="50" relative="1" as="geometry">
            <mxPoint x="1126" y="479" as="sourcePoint" />
            <mxPoint x="1123" y="158" as="targetPoint" />
            <Array as="points">
              <mxPoint x="1395" y="631" />
              <mxPoint x="1395" y="157" />
            </Array>
            <mxPoint as="offset" />
          </mxGeometry>
        </mxCell>
        <mxCell id="hn5Nm0eeTXandSpbk1XQ-20" value="&lt;div&gt;if: senha informada&lt;/div&gt;&lt;div&gt;u: confirmar transferência&lt;/div&gt;" style="endArrow=classic;html=1;rounded=0;entryX=0;entryY=0.5;entryDx=0;entryDy=0;align=left;edgeStyle=orthogonalEdgeStyle;exitX=0.5;exitY=1;exitDx=0;exitDy=0;" parent="hn5Nm0eeTXandSpbk1XQ-1" source="hn5Nm0eeTXandSpbk1XQ-16" target="hn5Nm0eeTXandSpbk1XQ-21" edge="1">
          <mxGeometry x="-0.7492" y="-55" width="50" height="50" relative="1" as="geometry">
            <mxPoint x="1499" y="580" as="sourcePoint" />
            <mxPoint x="1490.3200000000002" y="624.9999999999999" as="targetPoint" />
            <mxPoint x="-50" y="-31" as="offset" />
          </mxGeometry>
        </mxCell>
        <mxCell id="hn5Nm0eeTXandSpbk1XQ-21" value="" style="fontStyle=0;labelPosition=right;verticalLabelPosition=middle;align=left;verticalAlign=middle;spacingLeft=2;html=1;points=[[0,0.5],[1,0.5]];fillColor=#000000;strokeColor=none;" parent="hn5Nm0eeTXandSpbk1XQ-1" vertex="1">
          <mxGeometry x="1692" y="719" width="30" height="30" as="geometry" />
        </mxCell>
        <mxCell id="hn5Nm0eeTXandSpbk1XQ-22" value="if: transferência efetuada" style="endArrow=classic;html=1;rounded=0;edgeStyle=orthogonalEdgeStyle;spacing=2;align=left;entryX=0.506;entryY=-0.13;entryDx=0;entryDy=0;entryPerimeter=0;" parent="hn5Nm0eeTXandSpbk1XQ-1" source="hn5Nm0eeTXandSpbk1XQ-21" target="hn5Nm0eeTXandSpbk1XQ-14" edge="1">
          <mxGeometry x="-0.1429" y="10" width="50" height="50" relative="1" as="geometry">
            <mxPoint x="1756" y="625" as="sourcePoint" />
            <mxPoint x="1755.24" y="671" as="targetPoint" />
            <mxPoint as="offset" />
          </mxGeometry>
        </mxCell>
        <mxCell id="qErdD9e5ErkNdksZ1k7C-0" value="" style="fontStyle=0;labelPosition=right;verticalLabelPosition=middle;align=left;verticalAlign=middle;spacingLeft=2;html=1;points=[[0,0.5],[1,0.5]];fillColor=#000000;strokeColor=none;" vertex="1" parent="hn5Nm0eeTXandSpbk1XQ-1">
          <mxGeometry x="1807" y="355" width="30" height="30" as="geometry" />
        </mxCell>
        <mxCell id="qErdD9e5ErkNdksZ1k7C-1" value="" style="fontStyle=0;labelPosition=right;verticalLabelPosition=middle;align=left;verticalAlign=middle;spacingLeft=2;html=1;points=[[0,0.5],[1,0.5]];fillColor=#000000;strokeColor=none;" vertex="1" parent="hn5Nm0eeTXandSpbk1XQ-1">
          <mxGeometry x="1537.5" y="440" width="30" height="30" as="geometry" />
        </mxCell>
        <mxCell id="qErdD9e5ErkNdksZ1k7C-2" value="if/d: dados corretos, mas &lt;br&gt;saldo &lt;b&gt;e limite de crédito &lt;/b&gt;&lt;br&gt;insuficientes" style="endArrow=classic;html=1;rounded=0;dashed=1;edgeStyle=orthogonalEdgeStyle;align=left;" edge="1" parent="hn5Nm0eeTXandSpbk1XQ-1" source="qErdD9e5ErkNdksZ1k7C-1" target="hn5Nm0eeTXandSpbk1XQ-3">
          <mxGeometry x="-0.0666" y="-10" width="50" height="50" relative="1" as="geometry">
            <mxPoint x="1848" y="337" as="sourcePoint" />
            <mxPoint x="1706" y="211" as="targetPoint" />
            <Array as="points">
              <mxPoint x="1476" y="455" />
              <mxPoint x="1476" y="192" />
            </Array>
            <mxPoint as="offset" />
          </mxGeometry>
        </mxCell>
        <mxCell id="qErdD9e5ErkNdksZ1k7C-4" value="if: saldo suficiente" style="endArrow=classic;html=1;rounded=0;edgeStyle=orthogonalEdgeStyle;spacing=2;align=left;exitX=0.419;exitY=0.981;exitDx=0;exitDy=0;exitPerimeter=0;entryX=0.487;entryY=-0.028;entryDx=0;entryDy=0;entryPerimeter=0;" edge="1" parent="hn5Nm0eeTXandSpbk1XQ-1" source="qErdD9e5ErkNdksZ1k7C-0" target="hn5Nm0eeTXandSpbk1XQ-6">
          <mxGeometry x="-0.6984" y="5" width="50" height="50" relative="1" as="geometry">
            <mxPoint x="1843" y="362" as="sourcePoint" />
            <mxPoint x="1802" y="384" as="targetPoint" />
            <mxPoint as="offset" />
          </mxGeometry>
        </mxCell>
        <mxCell id="qErdD9e5ErkNdksZ1k7C-5" value="if: saldo insuficiente" style="endArrow=classic;html=1;rounded=0;align=left;entryX=0.523;entryY=-0.007;entryDx=0;entryDy=0;entryPerimeter=0;edgeStyle=orthogonalEdgeStyle;" edge="1" parent="hn5Nm0eeTXandSpbk1XQ-1" source="qErdD9e5ErkNdksZ1k7C-0" target="qErdD9e5ErkNdksZ1k7C-1">
          <mxGeometry x="0.0808" y="-11" width="50" height="50" relative="1" as="geometry">
            <mxPoint x="1806" y="408" as="sourcePoint" />
            <mxPoint x="1716" y="221" as="targetPoint" />
            <mxPoint as="offset" />
          </mxGeometry>
        </mxCell>
      </root>
    </mxGraphModel>
  </diagram>
  <diagram id="-K1UuA9x8vVPtch7zDBp" name="elemento - SEQ">
    <mxGraphModel dx="2074" dy="1114" grid="0" gridSize="10" guides="1" tooltips="1" connect="1" arrows="1" fold="1" page="1" pageScale="1" pageWidth="2336" pageHeight="1654" math="0" shadow="0">
      <root>
        <mxCell id="0" />
        <mxCell id="1" parent="0" />
        <mxCell id="ulOjV1am5MxAongfy9X_-1" value="Definir endereço de entrega" style="swimlane;fontStyle=0;childLayout=stackLayout;horizontal=1;startSize=38;fillColor=none;horizontalStack=0;resizeParent=1;resizeParentMax=0;resizeLast=0;collapsible=1;marginBottom=0;rounded=1;overflow=block;whiteSpace=wrap;autosize=1;resizeHeight=0;resizeWidth=0;resizable=1;expand=1;html=1;" parent="1" vertex="1">
          <mxGeometry x="390" y="190" width="210" height="130" as="geometry" />
        </mxCell>
        <mxCell id="ulOjV1am5MxAongfy9X_-2" value="&lt;br&gt;definir endereço - SEQ {&lt;br&gt;&lt;div&gt;&lt;span style=&quot;white-space: pre;&quot;&gt;&#x9;&lt;/span&gt;d+u: CEP;&lt;/div&gt;&lt;div&gt;&lt;span style=&quot;white-space: pre;&quot;&gt;&#x9;&lt;/span&gt;d: logradouro, cidade, estado&lt;br&gt;&lt;/div&gt;&lt;span style=&quot;white-space: pre;&quot;&gt;&#x9;&lt;/span&gt;d+u: número, complemento&lt;br&gt;&lt;div&gt;}&lt;/div&gt;&lt;br&gt;&lt;div&gt;&lt;br&gt;&lt;/div&gt;" style="text;strokeColor=none;fillColor=none;align=left;verticalAlign=top;spacingLeft=4;spacingRight=4;overflow=visible;rotatable=0;points=[[0,0.5],[1,0.5]];portConstraint=eastwest;labelPadding=0;autosize=1;movable=0;html=1;" parent="ulOjV1am5MxAongfy9X_-1" vertex="1">
          <mxGeometry y="28" width="210" height="102" as="geometry" />
        </mxCell>
      </root>
    </mxGraphModel>
  </diagram>
  <diagram id="mEd2AjHS7FPo0Qrrsqw4" name="elemento - simultaneous speech">
    <mxGraphModel grid="0" page="1" gridSize="10" guides="1" tooltips="1" connect="1" arrows="1" fold="1" pageScale="1" pageWidth="827" pageHeight="1169" math="0" shadow="0">
      <root>
        <mxCell id="0" />
        <mxCell id="1" parent="0" />
        <mxCell id="g1zB0w7PrN9nFR4FATob-1" value="" style="rounded=1;whiteSpace=wrap;html=1;fillColor=#E0E0E0;" vertex="1" parent="1">
          <mxGeometry x="1016" y="109" width="90" height="34" as="geometry" />
        </mxCell>
        <mxCell id="g1zB0w7PrN9nFR4FATob-2" value="Visualizar comprovantes &lt;br&gt;de pagamento" style="swimlane;fontStyle=0;childLayout=stackLayout;horizontal=1;startSize=49;fillColor=none;horizontalStack=0;resizeParent=1;resizeParentMax=0;resizeLast=0;collapsible=1;marginBottom=0;rounded=1;overflow=block;whiteSpace=wrap;autosize=1;resizeHeight=0;resizeWidth=0;resizable=1;expand=1;html=1;" vertex="1" parent="1">
          <mxGeometry x="948.5" y="189" width="225" height="155" as="geometry" />
        </mxCell>
        <mxCell id="g1zB0w7PrN9nFR4FATob-3" value="&lt;div&gt;conferir conta {*}&lt;/div&gt;&lt;div&gt;&lt;br&gt;&lt;/div&gt;&lt;div&gt;indicar comprovantes para download {&lt;/div&gt;&lt;div&gt;&amp;nbsp;&amp;nbsp; d: comprovantes disponíveis&lt;/div&gt;&lt;div&gt;&amp;nbsp;&amp;nbsp; d+u: comprovantes a baixar&lt;/div&gt;&lt;div&gt;}&lt;br&gt;&lt;/div&gt;" style="text;strokeColor=none;fillColor=none;align=left;verticalAlign=top;spacingLeft=4;spacingRight=4;overflow=visible;rotatable=0;points=[[0,0.5],[1,0.5]];portConstraint=eastwest;labelPadding=0;autosize=1;movable=0;html=1;" vertex="1" parent="g1zB0w7PrN9nFR4FATob-2">
          <mxGeometry y="55" width="225" height="99" as="geometry" />
        </mxCell>
        <mxCell id="g1zB0w7PrN9nFR4FATob-4" value="&lt;div&gt;if: conta identificada e algum pagamento já realizado&lt;br&gt;&lt;/div&gt;&lt;div&gt;u: visualizar comprovantes de pagamento&lt;br&gt;&lt;/div&gt;" style="endArrow=classic;html=1;rounded=0;exitX=0.5;exitY=1;exitDx=0;exitDy=0;entryX=0.5;entryY=0;entryDx=0;entryDy=0;edgeStyle=orthogonalEdgeStyle;align=left;" edge="1" parent="1" source="g1zB0w7PrN9nFR4FATob-1" target="g1zB0w7PrN9nFR4FATob-2">
          <mxGeometry x="0.0952" y="7" width="50" height="50" relative="1" as="geometry">
            <mxPoint x="746" y="139" as="sourcePoint" />
            <mxPoint x="746" y="279" as="targetPoint" />
            <mxPoint as="offset" />
          </mxGeometry>
        </mxCell>
        <mxCell id="g1zB0w7PrN9nFR4FATob-5" value="u: efetuar download&lt;br&gt;dos comprovantes indicados" style="endArrow=classic;html=1;rounded=0;edgeStyle=orthogonalEdgeStyle;spacing=2;align=left;entryX=0.5;entryY=0.032;entryDx=0;entryDy=0;exitX=0.5;exitY=1;exitDx=0;exitDy=0;entryPerimeter=0;" edge="1" parent="1" source="g1zB0w7PrN9nFR4FATob-2" target="g1zB0w7PrN9nFR4FATob-7">
          <mxGeometry x="-0.1461" y="10" width="50" height="50" relative="1" as="geometry">
            <mxPoint x="1061" y="419" as="sourcePoint" />
            <mxPoint x="961" y="333" as="targetPoint" />
            <mxPoint as="offset" />
          </mxGeometry>
        </mxCell>
        <mxCell id="g1zB0w7PrN9nFR4FATob-6" value="if/d: comprovantes &lt;br&gt;baixados com sucesso" style="endArrow=classic;html=1;rounded=0;align=left;edgeStyle=orthogonalEdgeStyle;exitX=0;exitY=0.5;exitDx=0;exitDy=0;entryX=0;entryY=0.5;entryDx=0;entryDy=0;" edge="1" parent="1" source="g1zB0w7PrN9nFR4FATob-7" target="g1zB0w7PrN9nFR4FATob-3">
          <mxGeometry x="0.0289" y="-15" width="50" height="50" relative="1" as="geometry">
            <mxPoint x="1030" y="428" as="sourcePoint" />
            <mxPoint x="928" y="290" as="targetPoint" />
            <mxPoint as="offset" />
            <Array as="points">
              <mxPoint x="903" y="418" />
              <mxPoint x="903" y="294" />
            </Array>
          </mxGeometry>
        </mxCell>
        <mxCell id="g1zB0w7PrN9nFR4FATob-7" value="" style="fontStyle=0;labelPosition=right;verticalLabelPosition=middle;align=left;verticalAlign=middle;spacingLeft=2;html=1;points=[[0,0.5],[1,0.5]];fillColor=#000000;strokeColor=none;" vertex="1" parent="1">
          <mxGeometry x="1046" y="403" width="30" height="30" as="geometry" />
        </mxCell>
        <mxCell id="g1zB0w7PrN9nFR4FATob-8" value="&lt;div&gt;if/d/: erro ao efetuar o download&lt;br&gt;(espaço em disco insuficiente&lt;br&gt;ou falta de permissão de escrita)&lt;br&gt;&lt;/div&gt;" style="endArrow=classic;html=1;rounded=0;edgeStyle=orthogonalEdgeStyle;spacing=2;align=left;exitX=0.438;exitY=1.01;exitDx=0;exitDy=0;dashed=1;exitPerimeter=0;entryX=-0.014;entryY=0.232;entryDx=0;entryDy=0;entryPerimeter=0;" edge="1" parent="1" source="g1zB0w7PrN9nFR4FATob-7" target="g1zB0w7PrN9nFR4FATob-3">
          <mxGeometry x="-0.2959" y="25" width="50" height="50" relative="1" as="geometry">
            <mxPoint x="1056" y="377" as="sourcePoint" />
            <mxPoint x="924" y="244" as="targetPoint" />
            <mxPoint as="offset" />
            <Array as="points">
              <mxPoint x="1059" y="443" />
              <mxPoint x="861" y="443" />
              <mxPoint x="861" y="267" />
            </Array>
          </mxGeometry>
        </mxCell>
        <mxCell id="g1zB0w7PrN9nFR4FATob-9" value="Acompanhar download de comprovantes" style="swimlane;fontStyle=0;childLayout=stackLayout;horizontal=1;startSize=34;fillColor=none;horizontalStack=0;resizeParent=1;resizeParentMax=0;resizeLast=0;collapsible=1;marginBottom=0;rounded=1;overflow=block;whiteSpace=wrap;autosize=1;resizeHeight=0;resizeWidth=0;resizable=1;expand=1;html=1;" vertex="1" parent="1">
          <mxGeometry x="1238" y="333" width="248" height="170" as="geometry" />
        </mxCell>
        <mxCell id="g1zB0w7PrN9nFR4FATob-10" value="&lt;div&gt;conferir conta {*}&lt;/div&gt;&lt;div&gt;&lt;br&gt;&lt;/div&gt;&lt;div&gt;verificar status do download {&lt;/div&gt;&lt;div&gt;&amp;nbsp;&amp;nbsp; d: núm. comprovantes copiados,&lt;/div&gt;&lt;div&gt;&amp;nbsp;&amp;nbsp;&amp;nbsp;&amp;nbsp;&amp;nbsp;&amp;nbsp; núm comprovantes que falta copiar,&lt;br&gt;&amp;nbsp; &amp;nbsp; &amp;nbsp;&amp;nbsp; tamanho total copiado,&lt;br&gt;&amp;nbsp; &amp;nbsp; &amp;nbsp;&amp;nbsp; tamanho total que falta copiar,&lt;/div&gt;&lt;div&gt;&amp;nbsp; &amp;nbsp;&amp;nbsp; &amp;nbsp; percentagem (em Kb) já copiados&lt;/div&gt;&lt;div&gt;}&lt;br&gt;&lt;/div&gt;" style="text;strokeColor=none;fillColor=none;align=left;verticalAlign=top;spacingLeft=4;spacingRight=4;overflow=visible;rotatable=0;points=[[0,0.5],[1,0.5]];portConstraint=eastwest;labelPadding=0;autosize=1;movable=0;html=1;" vertex="1" parent="g1zB0w7PrN9nFR4FATob-9">
          <mxGeometry y="32" width="248" height="138" as="geometry" />
        </mxCell>
        <mxCell id="g1zB0w7PrN9nFR4FATob-11" value="&lt;div&gt;u: cancelar download&lt;/div&gt;" style="endArrow=classic;html=1;rounded=0;edgeStyle=orthogonalEdgeStyle;spacing=2;align=left;entryX=1;entryY=0.25;entryDx=0;entryDy=0;exitX=0.5;exitY=0;exitDx=0;exitDy=0;dashed=1;" edge="1" parent="1" source="g1zB0w7PrN9nFR4FATob-9" target="g1zB0w7PrN9nFR4FATob-2">
          <mxGeometry x="0.497" y="20" width="50" height="50" relative="1" as="geometry">
            <mxPoint x="1046" y="680.79" as="sourcePoint" />
            <mxPoint x="950" y="536.79" as="targetPoint" />
            <mxPoint as="offset" />
          </mxGeometry>
        </mxCell>
        <mxCell id="g1zB0w7PrN9nFR4FATob-12" value="d: status do download" style="rounded=0;whiteSpace=wrap;html=1;strokeWidth=4;" vertex="1" parent="1">
          <mxGeometry x="1076" y="408.5" width="161" height="19" as="geometry" />
        </mxCell>
      </root>
    </mxGraphModel>
  </diagram>
  <diagram id="bOqdpOprAH6-BD3eoQoi" name="elemento - efeito">
    <mxGraphModel grid="0" page="1" gridSize="10" guides="1" tooltips="1" connect="1" arrows="1" fold="1" pageScale="1" pageWidth="827" pageHeight="1169" math="0" shadow="0">
      <root>
        <mxCell id="0" />
        <mxCell id="1" parent="0" />
        <mxCell id="dWPh0mEiCV2ONKLfC_Y4-1" value="&lt;div&gt;u: consultar extrato&lt;/div&gt;&lt;div&gt;&lt;b&gt;why&lt;/b&gt;: qualquer surpresa no saldo&lt;/div&gt;leva o usr a consultar o extrato" style="endArrow=classic;html=1;rounded=0;spacing=2;align=left;exitX=1;exitY=0.5;exitDx=0;exitDy=0;entryX=-0.029;entryY=0.378;entryDx=0;entryDy=0;entryPerimeter=0;" edge="1" parent="1" source="dWPh0mEiCV2ONKLfC_Y4-3" target="dWPh0mEiCV2ONKLfC_Y4-7">
          <mxGeometry x="-0.7538" y="29" width="50" height="50" relative="1" as="geometry">
            <mxPoint x="883" y="837" as="sourcePoint" />
            <mxPoint x="384" y="339" as="targetPoint" />
            <mxPoint as="offset" />
          </mxGeometry>
        </mxCell>
        <mxCell id="dWPh0mEiCV2ONKLfC_Y4-2" value="" style="rounded=1;whiteSpace=wrap;html=1;fillColor=#E0E0E0;" vertex="1" parent="1">
          <mxGeometry x="262" y="82" width="90" height="34" as="geometry" />
        </mxCell>
        <mxCell id="dWPh0mEiCV2ONKLfC_Y4-3" value="Consultar saldo" style="swimlane;fontStyle=0;childLayout=stackLayout;horizontal=1;startSize=28;fillColor=none;horizontalStack=0;resizeParent=1;resizeParentMax=0;resizeLast=0;collapsible=1;marginBottom=0;rounded=1;overflow=block;whiteSpace=wrap;autosize=1;resizeHeight=0;resizeWidth=0;resizable=1;expand=1;html=1;" vertex="1" parent="1">
          <mxGeometry x="40" y="247" width="175" height="155" as="geometry">
            <mxRectangle x="361" y="280" width="120" height="30" as="alternateBounds" />
          </mxGeometry>
        </mxCell>
        <mxCell id="dWPh0mEiCV2ONKLfC_Y4-4" value="&lt;div&gt;&lt;b&gt;conferir conta&lt;/b&gt; {&lt;br&gt;&amp;nbsp; d: agência, conta &lt;br&gt;&amp;nbsp; &lt;b&gt;why&lt;/b&gt;: o usuário pode ter &lt;br&gt;&lt;div&gt;&amp;nbsp; múltiplas contas no banco }&lt;/div&gt;&lt;/div&gt;&lt;div&gt;&lt;br&gt;&lt;/div&gt;ver saldo {&lt;br&gt;&amp;nbsp; d: saldo,&amp;nbsp;limite de &lt;br&gt;&amp;nbsp; &amp;nbsp; crédito }" style="text;strokeColor=none;fillColor=none;align=left;verticalAlign=top;spacingLeft=4;spacingRight=4;overflow=visible;rotatable=0;points=[[0,0.5],[1,0.5]];portConstraint=eastwest;labelPadding=0;autosize=1;movable=0;html=1;" vertex="1" parent="dWPh0mEiCV2ONKLfC_Y4-3">
          <mxGeometry y="28" width="175" height="127" as="geometry" />
        </mxCell>
        <mxCell id="dWPh0mEiCV2ONKLfC_Y4-5" value="if: conta identificada&lt;br&gt;u: consultar saldo" style="endArrow=classic;html=1;rounded=0;exitX=0.25;exitY=1;exitDx=0;exitDy=0;entryX=0.5;entryY=0;entryDx=0;entryDy=0;edgeStyle=orthogonalEdgeStyle;align=left;" edge="1" parent="1" source="dWPh0mEiCV2ONKLfC_Y4-2" target="dWPh0mEiCV2ONKLfC_Y4-3">
          <mxGeometry x="0.2153" y="-28" width="50" height="50" relative="1" as="geometry">
            <mxPoint x="-113" y="227.31999999999994" as="sourcePoint" />
            <mxPoint x="-114.67999999999984" y="317.31999999999994" as="targetPoint" />
            <mxPoint as="offset" />
          </mxGeometry>
        </mxCell>
        <mxCell id="dWPh0mEiCV2ONKLfC_Y4-6" value="Consultar extrato do período &amp;lt;Per&amp;gt;" style="swimlane;fontStyle=0;childLayout=stackLayout;horizontal=1;startSize=34;fillColor=none;horizontalStack=0;resizeParent=1;resizeParentMax=0;resizeLast=0;collapsible=1;marginBottom=0;rounded=1;overflow=block;whiteSpace=wrap;autosize=1;resizeHeight=0;resizeWidth=0;resizable=1;expand=1;html=1;" vertex="1" parent="1">
          <mxGeometry x="419" y="247" width="223" height="160" as="geometry" />
        </mxCell>
        <mxCell id="dWPh0mEiCV2ONKLfC_Y4-7" value="&lt;div&gt;conferir conta {*}&lt;br&gt;&lt;/div&gt;&lt;div&gt;&lt;br&gt;&lt;/div&gt;SEQ {&lt;br&gt;&amp;nbsp; informar período (default = &lt;i&gt;&lt;u&gt;Per&lt;/u&gt;&lt;/i&gt;) { &lt;br&gt;&amp;nbsp; &amp;nbsp;&amp;nbsp;&amp;nbsp; d + u: datas de início e fim }&lt;br&gt;&amp;nbsp; ver extrato {&lt;br&gt;&amp;nbsp; &amp;nbsp;&amp;nbsp;&amp;nbsp; d: transações }&lt;br&gt;}" style="text;strokeColor=none;fillColor=none;align=left;verticalAlign=top;spacingLeft=4;spacingRight=4;overflow=visible;rotatable=0;points=[[0,0.5],[1,0.5]];portConstraint=eastwest;labelPadding=0;autosize=1;movable=0;html=1;" vertex="1" parent="dWPh0mEiCV2ONKLfC_Y4-6">
          <mxGeometry y="28" width="204" height="127" as="geometry" />
        </mxCell>
        <mxCell id="dWPh0mEiCV2ONKLfC_Y4-8" value="&lt;div&gt;if: conta identificada&lt;/div&gt;u: consultar extrato&lt;br&gt;{Per = conta.período ou últimos 7 dias} &lt;b&gt;&lt;br&gt;why&lt;/b&gt;: a maioria dos usrs &lt;br&gt;consulta a última semana" style="endArrow=classic;html=1;rounded=0;exitX=0.75;exitY=1;exitDx=0;exitDy=0;entryX=0.554;entryY=0.009;entryDx=0;entryDy=0;entryPerimeter=0;edgeStyle=orthogonalEdgeStyle;align=left;" edge="1" parent="1" source="dWPh0mEiCV2ONKLfC_Y4-2" target="dWPh0mEiCV2ONKLfC_Y4-6">
          <mxGeometry x="-0.8802" y="36" width="50" height="50" relative="1" as="geometry">
            <mxPoint x="194" y="126" as="sourcePoint" />
            <mxPoint x="194" y="266" as="targetPoint" />
            <mxPoint as="offset" />
          </mxGeometry>
        </mxCell>
        <mxCell id="RCj0Dn-Yf90cmr7qHgmw-4" value="Modificar período &lt;br&gt;do extrato" style="swimlane;fontStyle=0;childLayout=stackLayout;horizontal=1;startSize=38;fillColor=none;horizontalStack=0;resizeParent=1;resizeParentMax=0;resizeLast=0;collapsible=1;marginBottom=0;rounded=1;overflow=block;whiteSpace=wrap;autosize=1;resizeHeight=0;resizeWidth=0;resizable=1;expand=1;html=1;" vertex="1" parent="1">
          <mxGeometry x="420.5" y="448.00000000000006" width="220" height="182" as="geometry" />
        </mxCell>
        <mxCell id="RCj0Dn-Yf90cmr7qHgmw-5" value="conferir conta {*}&lt;br&gt;&lt;div&gt;&lt;br&gt;&lt;/div&gt;&lt;div&gt;informar período &lt;i&gt;Per&lt;/i&gt; - XOR {&lt;/div&gt;&amp;nbsp; &amp;nbsp; d+u: data início,&amp;nbsp;data fim;&lt;br&gt;&amp;nbsp; &amp;nbsp; d+u: últimos N dias;&lt;br&gt;&amp;nbsp; &amp;nbsp; d+u: últimas N transações } &lt;br&gt;&lt;div&gt;&lt;br&gt;&lt;/div&gt;&lt;div&gt;configurar período default {&lt;/div&gt;&amp;nbsp; d+u: modificar default (sim/não) }" style="text;strokeColor=none;fillColor=none;align=left;verticalAlign=top;spacingLeft=4;spacingRight=4;overflow=visible;rotatable=0;points=[[0,0.5],[1,0.5]];portConstraint=eastwest;labelPadding=0;autosize=1;movable=0;html=1;" vertex="1" parent="RCj0Dn-Yf90cmr7qHgmw-4">
          <mxGeometry y="40" width="204" height="142" as="geometry" />
        </mxCell>
        <mxCell id="RCj0Dn-Yf90cmr7qHgmw-6" value="u: modificar período" style="endArrow=classic;html=1;rounded=0;edgeStyle=orthogonalEdgeStyle;spacing=2;align=left;entryX=0.5;entryY=0;entryDx=0;entryDy=0;exitX=0.549;exitY=0.992;exitDx=0;exitDy=0;exitPerimeter=0;" edge="1" parent="1" source="dWPh0mEiCV2ONKLfC_Y4-7" target="RCj0Dn-Yf90cmr7qHgmw-4">
          <mxGeometry x="-0.1429" y="10" width="50" height="50" relative="1" as="geometry">
            <mxPoint x="534" y="503.7" as="sourcePoint" />
            <mxPoint x="434" y="427.7" as="targetPoint" />
            <mxPoint as="offset" />
          </mxGeometry>
        </mxCell>
        <mxCell id="RCj0Dn-Yf90cmr7qHgmw-7" value="u: efetivar &lt;br&gt;&lt;i&gt;Per &lt;/i&gt;como &lt;br&gt;novo período" style="endArrow=classic;html=1;rounded=0;entryX=0.544;entryY=0.044;entryDx=0;entryDy=0;entryPerimeter=0;exitX=0.5;exitY=1;exitDx=0;exitDy=0;align=left;" edge="1" parent="1" source="RCj0Dn-Yf90cmr7qHgmw-4" target="RCj0Dn-Yf90cmr7qHgmw-8">
          <mxGeometry x="-0.1897" y="4" width="50" height="50" relative="1" as="geometry">
            <mxPoint x="529" y="755.7" as="sourcePoint" />
            <mxPoint x="549" y="823.7" as="targetPoint" />
            <mxPoint as="offset" />
          </mxGeometry>
        </mxCell>
        <mxCell id="RCj0Dn-Yf90cmr7qHgmw-8" value="" style="fontStyle=0;labelPosition=right;verticalLabelPosition=middle;align=left;verticalAlign=middle;spacingLeft=2;html=1;points=[[0,0.5],[1,0.5]];fillColor=#000000;strokeColor=none;" vertex="1" parent="1">
          <mxGeometry x="515.5" y="692" width="30" height="30" as="geometry" />
        </mxCell>
        <mxCell id="RCj0Dn-Yf90cmr7qHgmw-9" value="if/d: data início posterior&lt;br&gt;&amp;nbsp; à data fim" style="endArrow=classic;html=1;rounded=0;dashed=1;edgeStyle=orthogonalEdgeStyle;entryX=1;entryY=0.5;entryDx=0;entryDy=0;align=left;exitX=1;exitY=0.5;exitDx=0;exitDy=0;" edge="1" parent="1" source="RCj0Dn-Yf90cmr7qHgmw-8" target="RCj0Dn-Yf90cmr7qHgmw-4">
          <mxGeometry x="0.021" y="-8" width="50" height="50" relative="1" as="geometry">
            <mxPoint x="674" y="813.7" as="sourcePoint" />
            <mxPoint x="454" y="713.7" as="targetPoint" />
            <Array as="points">
              <mxPoint x="658" y="707" />
              <mxPoint x="658" y="550" />
            </Array>
            <mxPoint as="offset" />
          </mxGeometry>
        </mxCell>
        <mxCell id="RCj0Dn-Yf90cmr7qHgmw-10" value="if: modificar default == sim&lt;br&gt;&lt;b&gt;effect&lt;/b&gt;:&lt;b&gt; &lt;/b&gt;conta.período = &lt;i&gt;Per&lt;/i&gt;" style="endArrow=classic;html=1;rounded=0;entryX=-0.015;entryY=0.748;entryDx=0;entryDy=0;edgeStyle=orthogonalEdgeStyle;align=left;exitX=0;exitY=0.5;exitDx=0;exitDy=0;entryPerimeter=0;" edge="1" parent="1" source="RCj0Dn-Yf90cmr7qHgmw-8" target="dWPh0mEiCV2ONKLfC_Y4-7">
          <mxGeometry x="-0.4694" y="-25" width="50" height="50" relative="1" as="geometry">
            <mxPoint x="309" y="768.7" as="sourcePoint" />
            <mxPoint x="424" y="468.7" as="targetPoint" />
            <Array as="points">
              <mxPoint x="316" y="707" />
              <mxPoint x="316" y="373" />
            </Array>
            <mxPoint as="offset" />
          </mxGeometry>
        </mxCell>
        <mxCell id="RCj0Dn-Yf90cmr7qHgmw-11" value="u: cancelar" style="endArrow=classic;html=1;rounded=0;dashed=1;edgeStyle=orthogonalEdgeStyle;entryX=1;entryY=0.5;entryDx=0;entryDy=0;align=left;exitX=0.999;exitY=0.183;exitDx=0;exitDy=0;exitPerimeter=0;" edge="1" parent="1" source="RCj0Dn-Yf90cmr7qHgmw-4" target="dWPh0mEiCV2ONKLfC_Y4-6">
          <mxGeometry width="50" height="50" relative="1" as="geometry">
            <mxPoint x="724" y="574" as="sourcePoint" />
            <mxPoint x="644.44" y="428.99600000000004" as="targetPoint" />
            <Array as="points">
              <mxPoint x="661" y="496" />
              <mxPoint x="661" y="327" />
            </Array>
          </mxGeometry>
        </mxCell>
        <mxCell id="RCj0Dn-Yf90cmr7qHgmw-12" value="if: modificar default == não" style="endArrow=classic;html=1;rounded=0;entryX=-0.015;entryY=0.595;entryDx=0;entryDy=0;edgeStyle=orthogonalEdgeStyle;align=left;entryPerimeter=0;exitX=0.413;exitY=0.92;exitDx=0;exitDy=0;exitPerimeter=0;" edge="1" parent="1" source="RCj0Dn-Yf90cmr7qHgmw-8" target="dWPh0mEiCV2ONKLfC_Y4-7">
          <mxGeometry x="-0.3747" y="-11" width="50" height="50" relative="1" as="geometry">
            <mxPoint x="818" y="811" as="sourcePoint" />
            <mxPoint x="424" y="443.66800000000006" as="targetPoint" />
            <Array as="points">
              <mxPoint x="531" y="749" />
              <mxPoint x="279" y="749" />
              <mxPoint x="279" y="353" />
            </Array>
            <mxPoint as="offset" />
          </mxGeometry>
        </mxCell>
      </root>
    </mxGraphModel>
  </diagram>
  <diagram id="YL14DTuAmd-sUDr02jcB" name="exemplo - sair no Word">
    <mxGraphModel grid="1" page="1" gridSize="10" guides="1" tooltips="1" connect="1" arrows="1" fold="1" pageScale="1" pageWidth="850" pageHeight="1100" math="0" shadow="0">
      <root>
        <mxCell id="0" />
        <mxCell id="1" parent="0" />
        <mxCell id="52iYUQq6NqklVGVxwUb1-1" value="" style="ellipse;html=1;shape=endState;fillColor=#000000;strokeColor=#000000;" vertex="1" parent="1">
          <mxGeometry x="1430" y="72" width="30" height="30" as="geometry" />
        </mxCell>
        <mxCell id="52iYUQq6NqklVGVxwUb1-2" value="" style="rounded=1;whiteSpace=wrap;html=1;fillColor=#E0E0E0;" vertex="1" parent="1">
          <mxGeometry x="930" y="68" width="90" height="34" as="geometry" />
        </mxCell>
        <mxCell id="52iYUQq6NqklVGVxwUb1-3" value="" style="endArrow=classic;html=1;rounded=0;exitX=1;exitY=0.5;exitDx=0;exitDy=0;entryX=0;entryY=0.5;entryDx=0;entryDy=0;edgeStyle=orthogonalEdgeStyle;" edge="1" parent="1" source="52iYUQq6NqklVGVxwUb1-2" target="z1TZbZngVB4NndHcJAAp-6">
          <mxGeometry relative="1" as="geometry">
            <mxPoint x="226" y="197" as="sourcePoint" />
            <mxPoint x="396" y="195" as="targetPoint" />
          </mxGeometry>
        </mxCell>
        <mxCell id="52iYUQq6NqklVGVxwUb1-4" value="u: sair" style="edgeLabel;resizable=0;html=1;align=center;verticalAlign=middle;" connectable="0" vertex="1" parent="52iYUQq6NqklVGVxwUb1-3">
          <mxGeometry relative="1" as="geometry" />
        </mxCell>
        <mxCell id="z1TZbZngVB4NndHcJAAp-2" value="Decidir se salva mudanças" style="swimlane;fontStyle=0;childLayout=stackLayout;horizontal=1;startSize=38;fillColor=none;horizontalStack=0;resizeParent=1;resizeParentMax=0;resizeLast=0;collapsible=1;marginBottom=0;rounded=1;overflow=block;whiteSpace=wrap;autosize=1;resizeHeight=0;resizeWidth=0;resizable=1;expand=1;html=1;dashed=1;" vertex="1" parent="1">
          <mxGeometry x="1100" y="160" width="170" height="68" as="geometry">
            <mxRectangle x="80" y="162" width="180" height="30" as="alternateBounds" />
          </mxGeometry>
        </mxCell>
        <mxCell id="Xb5lChFmqXbeAPKamTvW-2" value="&amp;nbsp; " style="text;html=1;align=left;verticalAlign=middle;resizable=0;points=[];autosize=1;strokeColor=none;fillColor=none;dashed=1;" vertex="1" parent="z1TZbZngVB4NndHcJAAp-2">
          <mxGeometry y="38" width="170" height="30" as="geometry" />
        </mxCell>
        <mxCell id="z1TZbZngVB4NndHcJAAp-5" value="u: cancelar&lt;br&gt;(desisti de sair)" style="endArrow=classic;html=1;rounded=0;dashed=1;edgeStyle=orthogonalEdgeStyle;align=left;entryX=0.5;entryY=1;entryDx=0;entryDy=0;exitX=-0.009;exitY=0.447;exitDx=0;exitDy=0;exitPerimeter=0;" edge="1" parent="1" source="z1TZbZngVB4NndHcJAAp-2" target="52iYUQq6NqklVGVxwUb1-2">
          <mxGeometry width="50" height="50" relative="1" as="geometry">
            <mxPoint x="1090" y="280" as="sourcePoint" />
            <mxPoint x="1091" y="290.02857142857135" as="targetPoint" />
          </mxGeometry>
        </mxCell>
        <mxCell id="z1TZbZngVB4NndHcJAAp-6" value="" style="fontStyle=0;labelPosition=right;verticalLabelPosition=middle;align=left;verticalAlign=middle;spacingLeft=2;html=1;points=[[0,0.5],[1,0.5]];fillColor=#000000;strokeColor=none;" vertex="1" parent="1">
          <mxGeometry x="1170" y="72" width="30" height="30" as="geometry" />
        </mxCell>
        <mxCell id="z1TZbZngVB4NndHcJAAp-7" value="" style="endArrow=classic;html=1;rounded=0;exitX=1;exitY=0.5;exitDx=0;exitDy=0;entryX=0;entryY=0.5;entryDx=0;entryDy=0;edgeStyle=orthogonalEdgeStyle;" edge="1" parent="1" source="z1TZbZngVB4NndHcJAAp-6" target="52iYUQq6NqklVGVxwUb1-1">
          <mxGeometry relative="1" as="geometry">
            <mxPoint x="1030" y="95" as="sourcePoint" />
            <mxPoint x="1170" y="97" as="targetPoint" />
          </mxGeometry>
        </mxCell>
        <mxCell id="z1TZbZngVB4NndHcJAAp-8" value="if: não há mudanças não salvas" style="edgeLabel;resizable=0;html=1;align=center;verticalAlign=middle;" connectable="0" vertex="1" parent="z1TZbZngVB4NndHcJAAp-7">
          <mxGeometry relative="1" as="geometry" />
        </mxCell>
        <mxCell id="z1TZbZngVB4NndHcJAAp-10" value="&lt;div&gt;if: há mudanças não salvas&lt;/div&gt;&lt;div&gt;d: Quer salvar as mudanças?&lt;br&gt;&lt;/div&gt;" style="endArrow=classic;html=1;rounded=0;dashed=1;edgeStyle=orthogonalEdgeStyle;align=left;exitX=0.548;exitY=0.938;exitDx=0;exitDy=0;exitPerimeter=0;entryX=0.503;entryY=-0.037;entryDx=0;entryDy=0;entryPerimeter=0;" edge="1" parent="1" source="z1TZbZngVB4NndHcJAAp-6" target="z1TZbZngVB4NndHcJAAp-2">
          <mxGeometry x="0.025" y="14" width="50" height="50" relative="1" as="geometry">
            <mxPoint x="1041" y="413" as="sourcePoint" />
            <mxPoint x="971" y="300" as="targetPoint" />
            <mxPoint as="offset" />
          </mxGeometry>
        </mxCell>
        <mxCell id="Xb5lChFmqXbeAPKamTvW-9" value="if: arquivo já tem nome (salva e sai)" style="edgeStyle=orthogonalEdgeStyle;rounded=0;orthogonalLoop=1;jettySize=auto;html=1;exitX=1;exitY=0.5;exitDx=0;exitDy=0;entryX=0.5;entryY=1;entryDx=0;entryDy=0;" edge="1" parent="1" source="Xb5lChFmqXbeAPKamTvW-1" target="52iYUQq6NqklVGVxwUb1-1">
          <mxGeometry x="-0.5276" y="15" relative="1" as="geometry">
            <Array as="points">
              <mxPoint x="1445" y="285" />
            </Array>
            <mxPoint as="offset" />
          </mxGeometry>
        </mxCell>
        <mxCell id="Xb5lChFmqXbeAPKamTvW-1" value="" style="fontStyle=0;labelPosition=right;verticalLabelPosition=middle;align=left;verticalAlign=middle;spacingLeft=2;html=1;points=[[0,0.5],[1,0.5]];fillColor=#000000;strokeColor=none;" vertex="1" parent="1">
          <mxGeometry x="1170" y="270" width="30" height="30" as="geometry" />
        </mxCell>
        <mxCell id="Xb5lChFmqXbeAPKamTvW-3" value="" style="endArrow=classic;html=1;rounded=0;exitX=0.996;exitY=0.414;exitDx=0;exitDy=0;entryX=0;entryY=1;entryDx=0;entryDy=0;edgeStyle=orthogonalEdgeStyle;exitPerimeter=0;" edge="1" parent="1" source="z1TZbZngVB4NndHcJAAp-2" target="52iYUQq6NqklVGVxwUb1-1">
          <mxGeometry relative="1" as="geometry">
            <mxPoint x="1030" y="95" as="sourcePoint" />
            <mxPoint x="1170" y="97" as="targetPoint" />
          </mxGeometry>
        </mxCell>
        <mxCell id="Xb5lChFmqXbeAPKamTvW-4" value="u: não salvar (sai sem salvar)" style="edgeLabel;resizable=0;html=1;align=center;verticalAlign=middle;" connectable="0" vertex="1" parent="Xb5lChFmqXbeAPKamTvW-3">
          <mxGeometry relative="1" as="geometry">
            <mxPoint x="-47" y="-18" as="offset" />
          </mxGeometry>
        </mxCell>
        <mxCell id="Xb5lChFmqXbeAPKamTvW-6" value="" style="endArrow=classic;html=1;rounded=0;edgeStyle=orthogonalEdgeStyle;entryX=0.51;entryY=0.09;entryDx=0;entryDy=0;entryPerimeter=0;" edge="1" parent="1" source="z1TZbZngVB4NndHcJAAp-2" target="Xb5lChFmqXbeAPKamTvW-1">
          <mxGeometry relative="1" as="geometry">
            <mxPoint x="1030" y="95" as="sourcePoint" />
            <mxPoint x="1170" y="280" as="targetPoint" />
          </mxGeometry>
        </mxCell>
        <mxCell id="Xb5lChFmqXbeAPKamTvW-7" value="u: sim, salva" style="edgeLabel;resizable=0;html=1;align=center;verticalAlign=middle;" connectable="0" vertex="1" parent="Xb5lChFmqXbeAPKamTvW-6">
          <mxGeometry relative="1" as="geometry" />
        </mxCell>
        <mxCell id="Xb5lChFmqXbeAPKamTvW-8" value="" style="fontStyle=0;labelPosition=right;verticalLabelPosition=middle;align=left;verticalAlign=middle;spacingLeft=2;html=1;points=[[0,0.5],[1,0.5]];fillColor=#000000;strokeColor=none;" vertex="1" parent="1">
          <mxGeometry x="1170" y="490" width="30" height="30" as="geometry" />
        </mxCell>
        <mxCell id="Xb5lChFmqXbeAPKamTvW-10" value="Definir onde salvar" style="swimlane;fontStyle=0;childLayout=stackLayout;horizontal=1;startSize=38;fillColor=none;horizontalStack=0;resizeParent=1;resizeParentMax=0;resizeLast=0;collapsible=1;marginBottom=0;rounded=1;overflow=block;whiteSpace=wrap;autosize=1;resizeHeight=0;resizeWidth=0;resizable=1;expand=1;html=1;" vertex="1" parent="1">
          <mxGeometry x="1087.5" y="335" width="195" height="98" as="geometry">
            <mxRectangle x="80" y="162" width="180" height="30" as="alternateBounds" />
          </mxGeometry>
        </mxCell>
        <mxCell id="Xb5lChFmqXbeAPKamTvW-11" value="&lt;div&gt;informar localização do arquivo {&lt;/div&gt;&lt;div&gt;&amp;nbsp;&amp;nbsp; d+u: pasta, nome de arquivo &lt;br&gt;&lt;/div&gt;&lt;div&gt;}&lt;/div&gt;" style="text;html=1;align=left;verticalAlign=middle;resizable=0;points=[];autosize=1;strokeColor=none;fillColor=none;dashed=1;" vertex="1" parent="Xb5lChFmqXbeAPKamTvW-10">
          <mxGeometry y="38" width="195" height="60" as="geometry" />
        </mxCell>
        <mxCell id="Xb5lChFmqXbeAPKamTvW-12" value="if: arquivo ainda não tem nome" style="endArrow=classic;html=1;rounded=0;dashed=1;edgeStyle=orthogonalEdgeStyle;align=left;entryX=0.5;entryY=0;entryDx=0;entryDy=0;exitX=0.507;exitY=0.989;exitDx=0;exitDy=0;exitPerimeter=0;" edge="1" parent="1" source="Xb5lChFmqXbeAPKamTvW-1" target="Xb5lChFmqXbeAPKamTvW-10">
          <mxGeometry x="-0.4187" y="5" width="50" height="50" relative="1" as="geometry">
            <mxPoint x="1098" y="200" as="sourcePoint" />
            <mxPoint x="985" y="112" as="targetPoint" />
            <mxPoint as="offset" />
          </mxGeometry>
        </mxCell>
        <mxCell id="Xb5lChFmqXbeAPKamTvW-14" value="Confirmar sobreposição do arquivo" style="swimlane;fontStyle=0;childLayout=stackLayout;horizontal=1;startSize=38;horizontalStack=0;resizeParent=1;resizeParentMax=0;resizeLast=0;collapsible=1;marginBottom=0;rounded=1;overflow=block;whiteSpace=wrap;autosize=1;resizeHeight=0;resizeWidth=0;resizable=1;expand=1;html=1;dashed=1;" vertex="1" parent="1">
          <mxGeometry x="1070" y="570" width="230" height="73" as="geometry">
            <mxRectangle x="80" y="162" width="180" height="30" as="alternateBounds" />
          </mxGeometry>
        </mxCell>
        <mxCell id="Xb5lChFmqXbeAPKamTvW-16" value="&lt;div&gt;if: já existe um arquivo com o mesmo nome&lt;br&gt;&amp;nbsp;&amp;nbsp;&amp;nbsp; na localização indicada&lt;/div&gt;&lt;div&gt;d: Arquivo já existe. Quer sobrescrever?&lt;br&gt;&lt;/div&gt;" style="endArrow=classic;html=1;rounded=0;dashed=1;edgeStyle=orthogonalEdgeStyle;align=left;exitX=0.489;exitY=0.963;exitDx=0;exitDy=0;exitPerimeter=0;" edge="1" parent="1" source="Xb5lChFmqXbeAPKamTvW-8" target="Xb5lChFmqXbeAPKamTvW-14">
          <mxGeometry x="-0.1787" y="5" width="50" height="50" relative="1" as="geometry">
            <mxPoint x="1310" y="500" as="sourcePoint" />
            <mxPoint x="1200" y="366" as="targetPoint" />
            <mxPoint as="offset" />
          </mxGeometry>
        </mxCell>
        <mxCell id="Xb5lChFmqXbeAPKamTvW-17" value="" style="endArrow=classic;html=1;rounded=0;entryX=0.487;entryY=0.111;entryDx=0;entryDy=0;edgeStyle=orthogonalEdgeStyle;entryPerimeter=0;exitX=0.496;exitY=1.037;exitDx=0;exitDy=0;exitPerimeter=0;" edge="1" parent="1" source="Xb5lChFmqXbeAPKamTvW-11" target="Xb5lChFmqXbeAPKamTvW-8">
          <mxGeometry relative="1" as="geometry">
            <mxPoint x="1260" y="480" as="sourcePoint" />
            <mxPoint x="1185" y="97" as="targetPoint" />
          </mxGeometry>
        </mxCell>
        <mxCell id="Xb5lChFmqXbeAPKamTvW-18" value="u: salvar" style="edgeLabel;resizable=0;html=1;align=center;verticalAlign=middle;" connectable="0" vertex="1" parent="Xb5lChFmqXbeAPKamTvW-17">
          <mxGeometry relative="1" as="geometry">
            <mxPoint x="10" as="offset" />
          </mxGeometry>
        </mxCell>
        <mxCell id="Xb5lChFmqXbeAPKamTvW-20" value="u: salvar (sobrepondo) e sair" style="edgeStyle=orthogonalEdgeStyle;rounded=0;orthogonalLoop=1;jettySize=auto;html=1;entryX=0.994;entryY=0.509;entryDx=0;entryDy=0;exitX=1;exitY=0.5;exitDx=0;exitDy=0;entryPerimeter=0;align=left;" edge="1" parent="1" source="Xb5lChFmqXbeAPKamTvW-14" target="52iYUQq6NqklVGVxwUb1-1">
          <mxGeometry x="-0.9444" y="16" relative="1" as="geometry">
            <mxPoint x="1500" y="520" as="sourcePoint" />
            <mxPoint x="1470" y="97" as="targetPoint" />
            <mxPoint as="offset" />
          </mxGeometry>
        </mxCell>
        <mxCell id="Xb5lChFmqXbeAPKamTvW-21" value="u: alterar localização&lt;br&gt;&amp;nbsp;&amp;nbsp;&amp;nbsp; do arquivo" style="endArrow=classic;html=1;rounded=0;dashed=1;edgeStyle=orthogonalEdgeStyle;align=left;entryX=0;entryY=0.25;entryDx=0;entryDy=0;exitX=0.006;exitY=0.143;exitDx=0;exitDy=0;exitPerimeter=0;" edge="1" parent="1" source="Xb5lChFmqXbeAPKamTvW-14" target="Xb5lChFmqXbeAPKamTvW-10">
          <mxGeometry x="-0.4885" y="-10" width="50" height="50" relative="1" as="geometry">
            <mxPoint x="1060" y="570" as="sourcePoint" />
            <mxPoint x="985" y="112" as="targetPoint" />
            <Array as="points">
              <mxPoint x="1030" y="580" />
              <mxPoint x="1030" y="360" />
            </Array>
            <mxPoint as="offset" />
          </mxGeometry>
        </mxCell>
        <mxCell id="8Ri1KMeDSvYn00bM9Y3k-1" value="u: cancelar&lt;br&gt;(desisti de sair)" style="endArrow=classic;html=1;rounded=0;dashed=1;edgeStyle=orthogonalEdgeStyle;align=left;entryX=0.25;entryY=1;entryDx=0;entryDy=0;exitX=-0.002;exitY=0.432;exitDx=0;exitDy=0;exitPerimeter=0;" edge="1" parent="1" source="Xb5lChFmqXbeAPKamTvW-14" target="52iYUQq6NqklVGVxwUb1-2">
          <mxGeometry x="-0.5505" y="22" width="50" height="50" relative="1" as="geometry">
            <mxPoint x="1160" y="620" as="sourcePoint" />
            <mxPoint x="985" y="112" as="targetPoint" />
            <mxPoint as="offset" />
          </mxGeometry>
        </mxCell>
        <mxCell id="8Ri1KMeDSvYn00bM9Y3k-2" value="if: não há arquivo com o mesmo nome &lt;br&gt;&lt;div align=&quot;left&quot;&gt;&amp;nbsp;&amp;nbsp;&amp;nbsp; no local indicado&lt;br&gt;&lt;/div&gt;" style="edgeStyle=orthogonalEdgeStyle;rounded=0;orthogonalLoop=1;jettySize=auto;html=1;exitX=1;exitY=0.5;exitDx=0;exitDy=0;entryX=1;entryY=1;entryDx=0;entryDy=0;" edge="1" parent="1" source="Xb5lChFmqXbeAPKamTvW-8" target="52iYUQq6NqklVGVxwUb1-1">
          <mxGeometry x="-0.5276" y="15" relative="1" as="geometry">
            <mxPoint x="1210" y="295" as="sourcePoint" />
            <mxPoint x="1470" y="97" as="targetPoint" />
            <Array as="points">
              <mxPoint x="1460" y="505" />
              <mxPoint x="1460" y="110" />
              <mxPoint x="1456" y="110" />
            </Array>
            <mxPoint as="offset" />
          </mxGeometry>
        </mxCell>
      </root>
    </mxGraphModel>
  </diagram>
</mxfile>
